<?xml version="1.0" encoding="UTF-8"?><svg id="Layer_2" xmlns="http://www.w3.org/2000/svg" viewBox="0 0 1023.45 409.41"><defs><style>.cls-1{fill:#8dd2bf;}</style></defs><g id="Layer_1-2"><rect class="cls-1" width="1023.45" height="409.41"/><path d="M162.62,138.88h0c7.84,0,14.2-6.36,14.2-14.2h0c0-7.84-6.36-14.2-14.2-14.2h0c-7.84,0-14.2,6.36-14.2,14.2h0c0,7.84,6.36,14.2,14.19,14.2Z"/><path d="M162.62,199.04h0c-7.84,0-14.2,6.36-14.2,14.2h0c0,7.84,6.36,14.2,14.19,14.2h0c7.84,0,14.19-6.35,14.19-14.19h0c0-7.84-6.36-14.2-14.2-14.2Z"/><path d="M162.62,267.94h0c5.76,0,10.42-4.67,10.42-10.42,0-2.77-1.1-5.27-2.86-7.14,2.35-5.22,1.4-11.57-2.89-15.86h0c-5.54-5.54-14.53-5.54-20.08,0h0c-5.54,5.54-5.54,14.53,0,20.08,1.47,1.47,3.19,2.54,5.02,3.23.16,5.61,4.74,10.12,10.39,10.12Z"/><path d="M162.62,287.6c-7.84,0-14.2,6.36-14.2,14.2s6.36,14.2,14.2,14.2,14.2-6.36,14.2-14.2h0c0-7.84-6.36-14.2-14.2-14.2Z"/><path d="M206.89,138.88c6.07,0,11.23-3.82,13.26-9.17,2.57-.07,5.11-1.06,7.07-3.02,4.07-4.07,4.07-10.67,0-14.74h0c-4-4-10.42-4.05-14.5-.19-1.78-.8-3.75-1.26-5.83-1.26-7.84,0-14.2,6.36-14.2,14.2h0c0,7.84,6.36,14.2,14.2,14.2Z"/><path d="M206.89,158.54h0c-5.76,0-10.42,4.67-10.42,10.42h0c0,5.76,4.67,10.42,10.42,10.42s10.42-4.67,10.42-10.42h0c0-5.76-4.67-10.42-10.42-10.42Z"/><path d="M251.17,110.49c-7.84,0-14.2,6.36-14.2,14.2h0c0,7.84,6.36,14.2,14.2,14.2h0c7.84,0,14.2-6.36,14.2-14.2h0c0-7.84-6.36-14.2-14.2-14.2Z"/><path d="M259.16,157.23c3.39-4.09,3.21-10.15-.62-13.98h0c-4.07-4.07-10.67-4.07-14.74,0h0c-3.83,3.83-4.01,9.89-.62,13.98-3.74,2.56-6.2,6.85-6.2,11.73h0c0,7.84,6.36,14.2,14.2,14.2h0c7.84,0,14.2-6.36,14.2-14.2h0c0-4.88-2.46-9.17-6.2-11.73Z"/><path d="M251.17,243.32c-7.84,0-14.2,6.36-14.2,14.2,0,3.5,1.27,6.7,3.37,9.17-4.73,5.58-4.48,13.94.79,19.2h0c5.54,5.55,14.53,5.55,20.07,0h0c5.26-5.26,5.52-13.63.79-19.21,2.1-2.47,3.37-5.67,3.37-9.17h0c0-7.84-6.36-14.2-14.2-14.2Z"/><path d="M251.17,291.37h0c-5.76,0-10.42,4.67-10.42,10.42h0c0,5.76,4.67,10.42,10.42,10.42h0c5.76,0,10.42-4.67,10.42-10.42s-4.67-10.42-10.42-10.42Z"/><path d="M295.44,291.37h0c-2.77,0-5.27,1.1-7.14,2.86-5.22-2.35-11.57-1.4-15.87,2.89h0c-5.54,5.54-5.54,14.53,0,20.08h0c5.54,5.54,14.53,5.54,20.07,0h0c1.47-1.47,2.54-3.19,3.23-5.02,5.61-.16,10.12-4.74,10.12-10.39s-4.67-10.42-10.42-10.42Z"/><path d="M339.72,138.88c7.84,0,14.2-6.36,14.2-14.2h0c0-7.84-6.36-14.2-14.2-14.2s-14.2,6.36-14.2,14.2h0c0,7.84,6.36,14.2,14.2,14.2Z"/><path d="M339.72,291.37h0c-5.76,0-10.42,4.67-10.42,10.42h0c0,5.76,4.67,10.42,10.42,10.42h0c5.76,0,10.42-4.67,10.42-10.42s-4.67-10.42-10.42-10.42Z"/><path d="M261.21,77.97c-5.54-5.54-14.53-5.54-20.08,0h0c-5.54,5.54-5.54,14.53,0,20.08h0c5.54,5.54,14.53,5.54,20.08,0h0c5.54-5.54,5.54-14.53,0-20.08h0Z"/><path d="M178.51,160.66h0c5.54,5.54,14.53,5.54,20.07,0h0c5.54-5.54,5.54-14.53,0-20.08h0c-5.54-5.54-14.53-5.54-20.08,0h0c-5.54,5.54-5.54,14.53,0,20.08Z"/><path d="M149.87,189.3c4.07,4.07,10.67,4.07,14.74,0,2.95-2.95,3.74-7.23,2.4-10.92,3.55-1.66,6.02-5.24,6.02-9.42,0-5.76-4.67-10.42-10.42-10.42h0c-5.76,0-10.42,4.67-10.42,10.42h0c0,1.26.26,2.44.66,3.55-1.07.5-2.09,1.16-2.98,2.04h0c-4.07,4.07-4.07,10.67,0,14.74h0Z"/><path d="M135.98,203.2c-5.54-5.54-14.53-5.54-20.08,0h0c-5.54,5.54-5.54,14.53,0,20.08,5.54,5.54,14.53,5.54,20.08,0h0c5.54-5.54,5.54-14.53,0-20.07h0Z"/><path d="M288.3,132.25c1.87,1.76,4.37,2.86,7.14,2.86,5.76,0,10.42-4.67,10.42-10.42h0c0-5.65-4.51-10.23-10.12-10.39-.69-1.83-1.76-3.55-3.23-5.02-5.54-5.54-14.53-5.54-20.08,0h0c-5.54,5.54-5.54,14.53,0,20.08,4.29,4.29,10.64,5.25,15.87,2.89Z"/><path d="M195.92,220.61h0c4.07-4.07,4.07-10.67,0-14.74h0c-4.07-4.07-10.67-4.07-14.74,0h0c-4.07,4.07-4.07,10.67,0,14.74s10.67,4.07,14.74,0Z"/><path d="M292.51,191.97h0c2.47-2.47,3.84-5.64,4.1-8.87,7.29-.6,13.02-6.69,13.02-14.14h0c0-1.8-.35-3.52-.96-5.1,5.08,1.95,11.05.89,15.14-3.2h0c5.54-5.54,5.54-14.53,0-20.08h0c-5.54-5.54-14.53-5.54-20.08,0h0c-4.09,4.09-5.15,10.06-3.2,15.14-1.58-.61-3.3-.96-5.1-.96-7.44,0-13.54,5.73-14.14,13.02-3.23.27-6.39,1.63-8.87,4.1h0c-5.54,5.54-5.54,14.53,0,20.08,5.54,5.54,14.53,5.54,20.08,0Z"/><path d="M209.82,234.51c-3.45,3.45-4.75,8.23-3.91,12.68-5.29.5-9.45,4.9-9.45,10.32h0c0,5.76,4.67,10.42,10.42,10.42,5.42,0,9.82-4.15,10.32-9.45,4.45.84,9.23-.46,12.68-3.91h0c5.54-5.54,5.54-14.53,0-20.08-5.54-5.54-14.53-5.54-20.08,0Z"/><path d="M195.92,268.48h0c-4.07-4.07-10.67-4.07-14.74,0s-4.07,10.67,0,14.74h0c4.07,4.07,10.67,4.07,14.74,0,4.07-4.07,4.07-10.67,0-14.74Z"/><path d="M352.46,174.56c-.89-.89-1.91-1.54-2.98-2.04.41-1.11.66-2.3.66-3.55,0-5.76-4.67-10.42-10.42-10.42h0c-5.76,0-10.42,4.67-10.42,10.42h0c0,4.18,2.47,7.76,6.02,9.42-1.33,3.69-.55,7.97,2.4,10.92h0c4.07,4.07,10.67,4.07,14.74,0h0c4.07-4.07,4.07-10.67,0-14.74h0Z"/><path d="M323.82,203.2c-5.54-5.54-14.53-5.54-20.08,0h0c-5.54,5.54-5.54,14.53,0,20.08h0c5.54,5.54,14.53,5.54,20.08,0h0c1.27-1.27,2.24-2.73,2.93-4.29,2.21,4.97,7.18,8.44,12.97,8.44h0c7.84,0,14.19-6.35,14.19-14.19h0c0-7.84-6.36-14.2-14.2-14.2h0c-5.79,0-10.76,3.47-12.97,8.44-.69-1.55-1.65-3.01-2.93-4.28h0Z"/><path d="M227.23,299.79c-1.96-1.96-4.51-2.95-7.07-3.02-2.03-5.36-7.2-9.17-13.26-9.17h0c-7.84,0-14.2,6.36-14.2,14.2h0c0,7.84,6.36,14.2,14.2,14.2,2.08,0,4.05-.46,5.83-1.26,4.08,3.86,10.51,3.81,14.51-.19,4.07-4.07,4.07-10.67,0-14.74h0Z"/><path d="M386.44,203.2h0c-5.54-5.54-14.53-5.54-20.08,0h0c-5.54,5.54-5.54,14.53,0,20.08h0c5.54,5.54,14.53,5.54,20.08,0h0c5.54-5.54,5.54-14.53,0-20.08Z"/><path d="M352.46,237.18h0c-4.07-4.07-10.67-4.07-14.74,0h0c-1.96,1.96-2.95,4.51-3.02,7.07-5.36,2.03-9.17,7.2-9.17,13.26,0,7.84,6.36,14.2,14.2,14.2h0c7.84,0,14.19-6.35,14.19-14.19h0c0-2.08-.46-4.05-1.26-5.83,3.85-4.08,3.81-10.51-.19-14.51Z"/><path d="M323.82,265.82c-4.09-4.09-10.06-5.15-15.14-3.2.61-1.58.96-3.3.96-5.1h0c0-7.84-6.36-14.2-14.2-14.2s-14.2,6.36-14.2,14.2h0c0,7.84,6.36,14.2,14.19,14.2h0c1.8,0,3.51-.35,5.1-.96-1.95,5.08-.89,11.05,3.2,15.14h0c5.54,5.54,14.53,5.54,20.07,0h0c5.54-5.54,5.54-14.53,0-20.08h0Z"/><path d="M258.54,331.1c-4.07-4.07-10.67-4.07-14.74,0-4.07,4.07-4.07,10.67,0,14.74h0c4.07,4.07,10.67,4.07,14.74,0,4.07-4.07,4.07-10.67,0-14.74h0Z"/><path d="M449.24,152.95c-.13-.49-.3-.93-.52-1.34-.22-.41-.5-.76-.85-1.06-.35-.3-.75-.53-1.21-.69-.46-.17-1-.25-1.61-.25-.9,0-1.67.18-2.32.54-.65.36-1.18.84-1.59,1.45-.41.61-.71,1.29-.91,2.06-.2.77-.29,1.56-.29,2.36s.1,1.59.29,2.36c.2.77.5,1.46.91,2.06.41.61.94,1.09,1.59,1.45.65.36,1.43.54,2.32.54.66,0,1.24-.11,1.74-.34.5-.23.93-.54,1.3-.94s.64-.87.85-1.4c.2-.53.34-1.11.4-1.72h2.87c-.06,1.01-.28,1.93-.65,2.76-.37.83-.87,1.55-1.5,2.16s-1.37,1.07-2.22,1.4c-.85.33-1.78.49-2.8.49-1.26,0-2.38-.23-3.38-.69s-1.84-1.1-2.53-1.9c-.69-.8-1.22-1.74-1.59-2.8-.37-1.07-.55-2.21-.55-3.42s.18-2.32.55-3.39c.37-1.07.9-2,1.59-2.8.69-.8,1.53-1.44,2.53-1.91,1-.47,2.12-.71,3.38-.71.94,0,1.83.13,2.66.39.83.26,1.57.64,2.2,1.13.64.49,1.15,1.1,1.54,1.8.39.71.64,1.52.73,2.43h-2.95Z"/><path d="M454.42,147.6h12.11v2.55h-9.17v4.41h8.48v2.4h-8.48v4.92h9.33v2.55h-12.28v-16.83Z"/><path d="M468.68,147.6h3.11l7.68,12.39h.05v-12.39h2.8v16.83h-3.11l-7.66-12.37h-.07v12.37h-2.8v-16.83Z"/><path d="M483.74,147.6h13.62v2.55h-5.35v14.28h-2.95v-14.28h-5.33v-2.55Z"/><path d="M498.84,147.6h12.11v2.55h-9.17v4.41h8.48v2.4h-8.48v4.92h9.33v2.55h-12.28v-16.83Z"/><path d="M513.22,147.6h8.04c1.85,0,3.24.4,4.17,1.2.93.8,1.39,1.92,1.39,3.35,0,.8-.12,1.47-.35,1.99-.24.53-.51.95-.82,1.27s-.62.55-.93.69c-.31.14-.53.24-.67.28v.05c.25.03.52.11.81.24s.56.33.81.6c.25.28.46.63.62,1.07.16.44.25.99.25,1.65,0,.99.07,1.89.22,2.7.15.81.38,1.39.7,1.73h-3.16c-.22-.36-.35-.76-.39-1.2-.04-.44-.06-.86-.06-1.27,0-.77-.05-1.43-.14-1.99-.09-.56-.27-1.02-.52-1.39-.25-.37-.59-.64-1.02-.81-.43-.17-.99-.26-1.66-.26h-4.34v6.93h-2.95v-16.83ZM516.16,155.26h4.83c.94,0,1.66-.22,2.14-.67.49-.45.73-1.12.73-2.01,0-.53-.08-.97-.24-1.31-.16-.34-.37-.6-.65-.79s-.59-.31-.94-.38c-.35-.06-.72-.09-1.1-.09h-4.78v5.25Z"/><path d="M535.42,147.6h11.62v2.55h-8.67v4.41h7.61v2.4h-7.61v7.47h-2.95v-16.83Z"/><path d="M556.08,147.2c1.26,0,2.38.23,3.38.71,1,.47,1.84,1.11,2.53,1.91s1.22,1.74,1.59,2.8c.37,1.07.55,2.2.55,3.39s-.18,2.35-.55,3.42c-.37,1.07-.9,2-1.59,2.8-.69.8-1.54,1.43-2.53,1.9-1,.46-2.12.69-3.38.69s-2.38-.23-3.38-.69-1.84-1.1-2.53-1.9c-.69-.8-1.22-1.74-1.59-2.8-.37-1.07-.55-2.21-.55-3.42s.18-2.32.55-3.39c.37-1.07.9-2,1.59-2.8.69-.8,1.53-1.44,2.53-1.91,1-.47,2.12-.71,3.38-.71ZM556.08,149.6c-.9,0-1.67.18-2.32.54-.65.36-1.18.84-1.59,1.45-.41.61-.71,1.29-.91,2.06-.2.77-.29,1.56-.29,2.36s.1,1.59.29,2.36c.2.77.5,1.46.91,2.06.41.61.94,1.09,1.59,1.45.65.36,1.43.54,2.32.54s1.67-.18,2.32-.54c.65-.36,1.18-.84,1.59-1.45.41-.6.71-1.29.91-2.06.2-.77.29-1.55.29-2.36s-.1-1.59-.29-2.36c-.2-.77-.5-1.46-.91-2.06-.41-.6-.94-1.09-1.59-1.45-.65-.36-1.43-.54-2.32-.54Z"/><path d="M566.36,147.6h8.04c1.85,0,3.24.4,4.17,1.2.93.8,1.39,1.92,1.39,3.35,0,.8-.12,1.47-.35,1.99-.24.53-.51.95-.82,1.27s-.62.55-.93.69c-.31.14-.53.24-.67.28v.05c.25.03.52.11.81.24s.56.33.81.6c.25.28.46.63.62,1.07.16.44.25.99.25,1.65,0,.99.07,1.89.22,2.7.15.81.38,1.39.7,1.73h-3.16c-.22-.36-.35-.76-.39-1.2-.04-.44-.06-.86-.06-1.27,0-.77-.05-1.43-.14-1.99-.09-.56-.27-1.02-.52-1.39-.25-.37-.59-.64-1.02-.81-.43-.17-.99-.26-1.66-.26h-4.34v6.93h-2.95v-16.83ZM569.3,155.26h4.83c.94,0,1.66-.22,2.14-.67.49-.45.73-1.12.73-2.01,0-.53-.08-.97-.24-1.31-.16-.34-.37-.6-.65-.79s-.59-.31-.94-.38c-.35-.06-.72-.09-1.1-.09h-4.78v5.25Z"/><path d="M590.37,194.59c-.71-1.07-1.65-1.93-2.8-2.56-1.15-.64-2.55-.96-4.19-.96s-3.04.32-4.19.96c-1.15.64-2.08,1.49-2.8,2.56-.71,1.07-1.24,2.29-1.56,3.66-.33,1.37-.49,2.78-.49,4.24s.16,2.76.49,4.08c.33,1.32.85,2.51,1.56,3.56.71,1.06,1.65,1.9,2.8,2.54,1.15.64,2.55.95,4.19.95s3.04-.32,4.19-.95c1.15-.64,2.08-1.48,2.8-2.54.71-1.06,1.23-2.24,1.56-3.56.33-1.32.49-2.68.49-4.08s-.16-2.87-.49-4.24c-.33-1.37-.85-2.59-1.56-3.66Z"/><polygon points="723.22 239.4 718.88 251.61 727.5 251.61 723.31 239.4 723.22 239.4"/><path d="M623.04,240.08c-.72-1.07-1.65-1.93-2.8-2.56-1.15-.64-2.55-.96-4.19-.96s-3.05.32-4.19.96c-1.15.64-2.08,1.49-2.8,2.56-.71,1.07-1.24,2.29-1.56,3.66-.33,1.37-.49,2.78-.49,4.24s.16,2.76.49,4.08c.33,1.32.85,2.51,1.56,3.56.71,1.06,1.65,1.9,2.8,2.54,1.15.64,2.55.95,4.19.95s3.04-.32,4.19-.95c1.15-.64,2.08-1.48,2.8-2.54.71-1.06,1.23-2.24,1.56-3.56.33-1.32.49-2.68.49-4.08s-.16-2.87-.49-4.24c-.33-1.37-.85-2.58-1.56-3.66Z"/><path d="M651.79,236.89h-8.01v9.37h8.01c1.68,0,2.93-.37,3.77-1.12.84-.75,1.26-1.96,1.26-3.63s-.42-2.79-1.26-3.52c-.84-.73-2.1-1.1-3.77-1.1Z"/><path d="M499.79,237.8c-.59-.36-1.27-.6-2.05-.72-.78-.12-1.58-.19-2.42-.19h-5.69v9.97h5.69c.84,0,1.65-.06,2.42-.19.78-.12,1.46-.37,2.05-.72.59-.36,1.06-.86,1.42-1.51.36-.65.54-1.51.54-2.56s-.18-1.91-.54-2.56c-.36-.65-.83-1.16-1.42-1.51Z"/><path d="M557.05,236.89h-8.01v9.37h8.01c1.68,0,2.94-.37,3.77-1.12.84-.75,1.26-1.96,1.26-3.63s-.42-2.79-1.26-3.52c-.84-.73-2.1-1.1-3.77-1.1Z"/><path d="M709.75,210.13c.71,1.06,1.65,1.9,2.8,2.54,1.15.64,2.55.95,4.19.95s3.04-.32,4.19-.95c1.15-.64,2.08-1.48,2.8-2.54.71-1.06,1.23-2.24,1.56-3.56.33-1.32.49-2.68.49-4.08s-.16-2.87-.49-4.24c-.33-1.37-.85-2.59-1.56-3.66-.72-1.07-1.65-1.93-2.8-2.56s-2.55-.96-4.19-.96-3.05.32-4.19.96c-1.15.64-2.08,1.49-2.8,2.56-.71,1.07-1.24,2.29-1.56,3.66-.33,1.37-.49,2.78-.49,4.24s.16,2.76.49,4.08c.33,1.32.85,2.51,1.56,3.56Z"/><path d="M446.81,250.68c-.56.34-1.06.75-1.49,1.21-.43.46-.78.98-1.05,1.54-.26.56-.4,1.18-.4,1.86,0,.59.13,1.16.4,1.7.26.54.61,1.01,1.05,1.4.43.39.94.7,1.51.93.57.23,1.17.35,1.79.35,1.18,0,2.21-.27,3.1-.82.89-.54,1.72-1.25,2.49-2.12l-5.68-6.94c-.59.25-1.17.54-1.72.89Z"/><path d="M554.86,199.65c.84-.75,1.26-1.96,1.26-3.63s-.42-2.79-1.26-3.52c-.84-.73-2.1-1.1-3.77-1.1h-8.01v9.37h8.01c1.68,0,2.94-.37,3.77-1.12Z"/><path d="M450.49,243.18c.93-.59,1.73-1.23,2.4-1.91s1-1.63,1-2.84c0-.87-.3-1.62-.91-2.24-.61-.62-1.31-.93-2.12-.93s-1.51.27-2.1.81c-.59.54-.89,1.25-.89,2.12,0,1.06.28,1.96.84,2.7s1.15,1.51,1.77,2.28Z"/><path d="M852.39,194.59c-.72-1.07-1.65-1.93-2.8-2.56-1.15-.64-2.55-.96-4.19-.96s-3.05.32-4.19.96c-1.15.64-2.08,1.49-2.8,2.56-.72,1.07-1.24,2.29-1.56,3.66-.33,1.37-.49,2.78-.49,4.24s.16,2.76.49,4.08c.33,1.32.85,2.51,1.56,3.56.71,1.06,1.65,1.9,2.8,2.54,1.15.64,2.55.95,4.19.95s3.04-.32,4.19-.95c1.15-.64,2.08-1.48,2.8-2.54.71-1.06,1.23-2.24,1.56-3.56.33-1.32.49-2.68.49-4.08s-.16-2.87-.49-4.24c-.33-1.37-.85-2.59-1.56-3.66Z"/><path d="M433.19,178.3v93.12h407.64v-44.54h61.73v-48.59h-469.37ZM817.67,185.72h7.32v33.27h-7.32v-33.27ZM741.11,185.72l7.41,23.39h.09l7.5-23.39h7.55l-11.04,33.27h-8.25l-10.76-33.27h7.5ZM701.5,195.57c.75-2.13,1.82-3.98,3.22-5.57,1.4-1.58,3.11-2.83,5.15-3.73,2.03-.9,4.32-1.35,6.87-1.35s4.88.45,6.9,1.35c2.02.9,3.73,2.14,5.13,3.73,1.4,1.58,2.47,3.44,3.21,5.57.75,2.13,1.12,4.44,1.12,6.92s-.37,4.68-1.12,6.78c-.75,2.1-1.82,3.92-3.21,5.48-1.4,1.55-3.11,2.77-5.13,3.66-2.02.89-4.32,1.33-6.9,1.33s-4.84-.44-6.87-1.33c-2.04-.89-3.75-2.1-5.15-3.66-1.4-1.55-2.47-3.38-3.22-5.48-.75-2.1-1.12-4.36-1.12-6.78s.37-4.79,1.12-6.92ZM621.82,185.72h7.32v33.27h-7.32v-33.27ZM603.04,203.43h14.03v5.68h-14.03v-5.68ZM535.76,185.72h17.94c1.49,0,2.83.24,4.03.72,1.2.48,2.22,1.14,3.08,1.98.85.84,1.51,1.81,1.96,2.91.45,1.1.68,2.29.68,3.57,0,1.96-.41,3.65-1.23,5.08-.82,1.43-2.17,2.52-4.03,3.26v.09c.9.25,1.65.63,2.24,1.14.59.51,1.07,1.12,1.44,1.82.37.7.64,1.47.82,2.31.17.84.29,1.68.35,2.52.03.53.06,1.15.09,1.86.03.71.09,1.45.16,2.19.08.75.2,1.45.37,2.12.17.67.43,1.23.77,1.7h-7.32c-.4-1.06-.65-2.31-.75-3.77-.09-1.46-.23-2.86-.42-4.19-.25-1.74-.78-3.01-1.58-3.82-.81-.81-2.13-1.21-3.96-1.21h-7.32v13h-7.32v-33.27ZM502.02,185.72h7.32v20.69c0,.9.08,1.79.23,2.66.16.87.48,1.64.98,2.31.5.67,1.19,1.21,2.07,1.63.89.42,2.07.63,3.56.63,2.61,0,4.41-.58,5.41-1.75.99-1.16,1.49-2.99,1.49-5.47v-20.69h7.32v20.69c0,4.5-1.26,7.85-3.77,10.04-2.52,2.19-6,3.28-10.44,3.28s-7.99-1.09-10.46-3.26c-2.47-2.17-3.7-5.53-3.7-10.06v-20.69ZM439.3,185.72h7.27l13.89,22.32h.09v-22.32h6.85v33.27h-7.32l-13.84-22.27h-.09v22.27h-6.85v-33.27ZM460.41,264.47l-2.7-3.31c-1.34,1.3-2.76,2.28-4.26,2.93-1.51.65-3.21.98-5.1.98-1.49,0-2.9-.22-4.22-.65-1.32-.44-2.46-1.08-3.42-1.93-.96-.85-1.72-1.9-2.28-3.12-.56-1.23-.84-2.63-.84-4.22,0-1.18.2-2.26.61-3.24s.96-1.86,1.65-2.66c.7-.79,1.5-1.5,2.4-2.12.9-.62,1.83-1.17,2.8-1.63-.9-1.09-1.65-2.17-2.26-3.26-.61-1.09-.91-2.36-.91-3.82,0-1.15.24-2.19.72-3.12.48-.93,1.13-1.73,1.93-2.4.81-.67,1.73-1.18,2.77-1.54,1.04-.36,2.12-.54,3.24-.54,1.27,0,2.46.17,3.56.51,1.1.34,2.06.85,2.89,1.51.82.67,1.48,1.5,1.96,2.49.48.99.72,2.14.72,3.45,0,1.96-.57,3.6-1.7,4.94-1.13,1.34-2.54,2.45-4.22,3.36l4.29,5.27c.34-.62.61-1.27.79-1.93.19-.67.33-1.34.42-2.03h5.73c-.16,1.49-.5,2.93-1.02,4.33-.53,1.4-1.26,2.69-2.19,3.87l6.76,7.88h-8.11ZM472.9,185.72h24.88v6.15h-17.57v7.13h16.12v5.69h-16.12v8.15h17.94v6.15h-25.26v-33.27ZM508.2,245.81c-.42,1.29-1.09,2.43-2,3.42-.92,1-2.1,1.79-3.56,2.4-1.46.6-3.23.91-5.31.91h-7.69v11.93h-7.32v-33.27h15c2.08,0,3.85.3,5.31.91,1.46.6,2.65,1.41,3.56,2.4.92.99,1.58,2.13,2,3.4.42,1.27.63,2.59.63,3.96s-.21,2.65-.63,3.94ZM537.72,264.47h-25.26v-33.27h24.88v6.15h-17.57v7.13h16.12v5.69h-16.12v8.15h17.94v6.15ZM563.06,264.47c-.4-1.06-.65-2.31-.75-3.77-.09-1.46-.23-2.86-.42-4.19-.25-1.74-.78-3.01-1.58-3.82-.81-.81-2.13-1.21-3.96-1.21h-7.32v13h-7.32v-33.27h17.94c1.49,0,2.83.24,4.03.72,1.2.48,2.22,1.14,3.08,1.98.85.84,1.51,1.81,1.96,2.91.45,1.1.68,2.29.68,3.57,0,1.96-.41,3.65-1.23,5.08-.82,1.43-2.17,2.52-4.03,3.26v.09c.9.25,1.65.63,2.24,1.14.59.51,1.07,1.12,1.44,1.82.37.7.64,1.47.82,2.31.17.84.29,1.68.35,2.52.03.53.06,1.15.09,1.86.03.72.09,1.45.16,2.19.08.75.2,1.45.37,2.12.17.67.43,1.23.77,1.7h-7.32ZM597.83,237.35h-16.08v7.69h13.93v5.68h-13.93v13.75h-7.32v-33.27h23.39v6.15ZM595.4,214.75c-1.4,1.55-3.11,2.77-5.12,3.66-2.02.89-4.32,1.33-6.9,1.33s-4.84-.44-6.87-1.33c-2.04-.89-3.75-2.1-5.15-3.66-1.4-1.55-2.47-3.38-3.21-5.48-.75-2.1-1.12-4.36-1.12-6.78s.37-4.79,1.12-6.92,1.82-3.98,3.21-5.57c1.4-1.58,3.11-2.83,5.15-3.73,2.03-.9,4.32-1.35,6.87-1.35s4.88.45,6.9,1.35c2.02.9,3.73,2.14,5.12,3.73,1.4,1.58,2.47,3.44,3.22,5.57s1.12,4.44,1.12,6.92-.37,4.68-1.12,6.78c-.75,2.1-1.82,3.92-3.22,5.48ZM631.28,254.76c-.75,2.1-1.82,3.92-3.21,5.48-1.4,1.55-3.11,2.77-5.13,3.66-2.02.89-4.32,1.33-6.9,1.33s-4.84-.44-6.87-1.33c-2.04-.89-3.75-2.1-5.15-3.66-1.4-1.55-2.47-3.38-3.22-5.48-.75-2.1-1.12-4.36-1.12-6.78s.37-4.79,1.12-6.92c.75-2.13,1.82-3.98,3.22-5.57,1.4-1.59,3.11-2.83,5.15-3.73,2.03-.9,4.32-1.35,6.87-1.35s4.88.45,6.9,1.35c2.02.9,3.73,2.14,5.13,3.73,1.4,1.58,2.47,3.44,3.21,5.57.75,2.13,1.12,4.44,1.12,6.92s-.37,4.68-1.12,6.78ZM634.64,185.72h7.27l13.89,22.32h.09v-22.32h6.85v33.27h-7.32l-13.84-22.27h-.09v22.27h-6.85v-33.27ZM657.8,264.47c-.4-1.06-.65-2.31-.75-3.77-.09-1.46-.23-2.86-.42-4.19-.25-1.74-.78-3.01-1.58-3.82-.81-.81-2.13-1.21-3.96-1.21h-7.32v13h-7.32v-33.27h17.94c1.49,0,2.83.24,4.03.72,1.2.48,2.22,1.14,3.08,1.98.85.84,1.51,1.81,1.96,2.91.45,1.1.68,2.29.68,3.57,0,1.96-.41,3.65-1.24,5.08-.82,1.43-2.17,2.52-4.03,3.26v.09c.9.25,1.65.63,2.24,1.14.59.51,1.07,1.12,1.45,1.82.37.7.64,1.47.81,2.31.17.84.29,1.68.35,2.52.03.53.06,1.15.09,1.86s.09,1.45.16,2.19c.08.75.2,1.45.37,2.12.17.67.43,1.23.77,1.7h-7.32ZM668.24,185.72h7.27l13.89,22.32h.09v-22.32h6.85v33.27h-7.32l-13.84-22.27h-.09v22.27h-6.85v-33.27ZM705,264.47h-6.85v-23.58h-.09l-8.15,23.58h-5.64l-8.15-23.34h-.09v23.34h-6.85v-33.27h10.3l7.78,22.88h.09l7.36-22.88h10.3v33.27ZM731.93,264.47l-2.52-7.41h-12.44l-2.61,7.41h-7.36l12.58-33.27h7.5l12.44,33.27h-7.59ZM769.58,264.47h-7.32l-13.84-22.27h-.09v22.27h-6.85v-33.27h7.27l13.89,22.32h.09v-22.32h6.85v33.27ZM767.3,218.99h-7.36l12.58-33.27h7.5l12.44,33.27h-7.59l-2.52-7.41h-12.44l-2.61,7.41ZM803.18,257.3c-.78,1.68-1.8,3.11-3.08,4.29-1.27,1.18-2.76,2.08-4.47,2.7-1.71.62-3.59.93-5.64.93-2.55,0-4.84-.44-6.87-1.33-2.04-.89-3.75-2.1-5.15-3.66-1.4-1.55-2.47-3.38-3.22-5.48-.75-2.1-1.12-4.36-1.12-6.78s.37-4.79,1.12-6.92,1.82-3.98,3.22-5.57c1.4-1.59,3.11-2.83,5.15-3.73,2.03-.9,4.32-1.35,6.87-1.35,1.83,0,3.56.26,5.19.79,1.63.53,3.09,1.3,4.38,2.31,1.29,1.01,2.35,2.26,3.19,3.75.84,1.49,1.37,3.2,1.58,5.13h-7.08c-.12-.84-.41-1.61-.84-2.31-.44-.7-.98-1.31-1.63-1.84-.65-.53-1.39-.94-2.21-1.24-.82-.29-1.68-.44-2.59-.44-1.65,0-3.05.32-4.19.96-1.15.64-2.08,1.49-2.8,2.56-.71,1.07-1.24,2.29-1.56,3.66-.33,1.37-.49,2.78-.49,4.24s.16,2.76.49,4.08c.33,1.32.85,2.51,1.56,3.56.71,1.06,1.65,1.9,2.8,2.54,1.15.64,2.55.95,4.19.95,2.24,0,3.98-.68,5.24-2.05,1.26-1.37,2.03-3.17,2.31-5.4h7.08c-.19,2.08-.67,3.96-1.45,5.64ZM804.81,218.99h-7.32v-27.12h-9.97v-6.15h27.26v6.15h-9.97v27.12ZM833.93,264.47h-25.25v-33.27h24.88v6.15h-17.57v7.13h16.12v5.69h-16.12v8.15h17.94v6.15ZM860.63,209.27c-.75,2.1-1.82,3.92-3.21,5.48-1.4,1.55-3.11,2.77-5.13,3.66-2.02.89-4.32,1.33-6.9,1.33s-4.84-.44-6.87-1.33c-2.04-.89-3.75-2.1-5.15-3.66-1.4-1.55-2.47-3.38-3.22-5.48-.75-2.1-1.12-4.36-1.12-6.78s.37-4.79,1.12-6.92c.75-2.13,1.82-3.98,3.22-5.57,1.4-1.58,3.11-2.83,5.15-3.73,2.03-.9,4.33-1.35,6.87-1.35s4.88.45,6.9,1.35c2.02.9,3.73,2.14,5.13,3.73,1.4,1.58,2.47,3.44,3.21,5.57s1.12,4.44,1.12,6.92-.37,4.68-1.12,6.78ZM893.9,218.99h-7.32l-13.84-22.27h-.09v22.27h-6.85v-33.27h7.27l13.89,22.32h.09v-22.32h6.85v33.27Z"/><polygon points="776.15 193.92 771.82 206.13 780.44 206.13 776.25 193.92 776.15 193.92"/></g></svg>