<?xml version="1.0" encoding="UTF-8"?><svg id="Layer_2" xmlns="http://www.w3.org/2000/svg" viewBox="0 0 807.11 796.19"><defs><style>.cls-1{fill:#8dd2bf;}</style></defs><g id="Layer_1-2"><path class="cls-1" d="M147.25,188.34h0c22.69,0,41.09-18.4,41.09-41.09h0c0-22.69-18.4-41.09-41.09-41.09h0c-22.69,0-41.09,18.39-41.09,41.09h0c0,22.7,18.39,41.09,41.09,41.09Z"/><path class="cls-1" d="M147.25,362.47h0c-22.69,0-41.09,18.39-41.09,41.09h0c0,22.69,18.39,41.09,41.09,41.09h0c22.69,0,41.08-18.39,41.08-41.08h0c0-22.69-18.4-41.09-41.09-41.09Z"/><path class="cls-1" d="M147.25,561.87h0c16.66,0,30.17-13.51,30.17-30.17,0-8.02-3.18-15.27-8.29-20.67,6.81-15.12,4.05-33.5-8.37-45.92h0c-16.04-16.05-42.06-16.05-58.11,0h0c-16.04,16.05-16.04,42.06,0,58.11,4.26,4.26,9.23,7.35,14.52,9.35.47,16.25,13.71,29.3,30.08,29.3Z"/><path class="cls-1" d="M147.25,618.77c-22.69,0-41.09,18.4-41.09,41.09s18.39,41.09,41.09,41.09,41.09-18.4,41.09-41.09h0c0-22.69-18.4-41.09-41.09-41.09Z"/><path class="cls-1" d="M275.4,188.34c17.57,0,32.52-11.04,38.39-26.55,7.43-.21,14.8-3.08,20.48-8.75,11.78-11.78,11.78-30.88,0-42.66h0c-11.57-11.57-30.16-11.71-41.98-.55-5.15-2.33-10.86-3.65-16.88-3.65-22.69,0-41.09,18.4-41.09,41.09h0c0,22.69,18.4,41.09,41.09,41.09Z"/><path class="cls-1" d="M275.4,245.24h0c-16.66,0-30.16,13.51-30.16,30.16h0c0,16.66,13.51,30.17,30.17,30.17s30.17-13.51,30.17-30.17h0c0-16.66-13.51-30.17-30.17-30.17Z"/><path class="cls-1" d="M403.55,106.16c-22.69,0-41.09,18.4-41.09,41.09h0c0,22.69,18.4,41.09,41.09,41.09h0c22.69,0,41.09-18.4,41.09-41.09h0c0-22.69-18.39-41.09-41.09-41.09Z"/><path class="cls-1" d="M426.68,241.45c9.8-11.85,9.3-29.36-1.8-40.46h0c-11.78-11.78-30.88-11.78-42.66,0h0c-11.1,11.1-11.6,28.61-1.8,40.46-10.84,7.4-17.96,19.84-17.96,33.95h0c0,22.69,18.4,41.09,41.09,41.09h0c22.69,0,41.09-18.4,41.09-41.09h0c0-14.11-7.12-26.56-17.96-33.95Z"/><path class="cls-1" d="M403.55,490.62c-22.69,0-41.09,18.4-41.09,41.09,0,10.13,3.68,19.38,9.76,26.55-13.7,16.14-12.96,40.35,2.28,55.59h0c16.04,16.05,42.06,16.05,58.1,0h0c15.24-15.24,15.98-39.44,2.28-55.59,6.08-7.16,9.76-16.42,9.76-26.55h0c0-22.69-18.39-41.09-41.09-41.09Z"/><path class="cls-1" d="M403.55,629.69h0c-16.66,0-30.16,13.5-30.16,30.16h0c0,16.66,13.51,30.17,30.17,30.17h0c16.66,0,30.17-13.5,30.17-30.16s-13.51-30.17-30.17-30.17Z"/><path class="cls-1" d="M531.71,629.69h0c-8.02,0-15.26,3.18-20.67,8.29-15.12-6.81-33.5-4.05-45.92,8.37h0c-16.05,16.05-16.05,42.06,0,58.11h0c16.04,16.05,42.06,16.05,58.1,0h0c4.26-4.26,7.35-9.23,9.35-14.53,16.25-.47,29.3-13.71,29.3-30.08s-13.51-30.17-30.17-30.17Z"/><path class="cls-1" d="M659.86,188.34c22.69,0,41.09-18.4,41.09-41.09h0c0-22.69-18.4-41.09-41.09-41.09s-41.09,18.4-41.09,41.09h0c0,22.69,18.4,41.09,41.09,41.09Z"/><path class="cls-1" d="M659.86,629.69h0c-16.66,0-30.17,13.5-30.17,30.16h0c0,16.66,13.51,30.17,30.17,30.17h0c16.66,0,30.16-13.5,30.16-30.16s-13.51-30.17-30.17-30.17Z"/><path class="cls-1" d="M432.61,12.03c-16.05-16.05-42.06-16.05-58.11,0h0c-16.05,16.05-16.05,42.06,0,58.11h0c16.05,16.05,42.06,16.05,58.11,0h0c16.05-16.05,16.05-42.06,0-58.11h0Z"/><path class="cls-1" d="M193.27,251.37h0c16.04,16.05,42.06,16.05,58.1,0h0c16.05-16.05,16.05-42.06,0-58.11h0c-16.05-16.05-42.06-16.05-58.11,0h0c-16.04,16.05-16.04,42.06,0,58.11Z"/><path class="cls-1" d="M110.37,334.27c11.78,11.78,30.88,11.78,42.66,0,8.55-8.55,10.81-20.94,6.95-31.6,10.27-4.81,17.44-15.17,17.44-27.26,0-16.66-13.51-30.17-30.17-30.17h0c-16.66,0-30.16,13.51-30.16,30.16h0c0,3.63.74,7.07,1.92,10.29-3.11,1.45-6.06,3.35-8.63,5.92h0c-11.78,11.78-11.78,30.88,0,42.67h0Z"/><path class="cls-1" d="M70.14,374.5c-16.05-16.05-42.06-16.05-58.11,0h0c-16.05,16.05-16.05,42.06,0,58.11,16.05,16.05,42.06,16.05,58.11,0h0c16.04-16.05,16.04-42.06,0-58.1h0Z"/><path class="cls-1" d="M511.04,169.13c5.4,5.11,12.65,8.29,20.67,8.29,16.66,0,30.17-13.51,30.17-30.17h0c0-16.36-13.05-29.61-29.3-30.08-2-5.29-5.09-10.26-9.35-14.52-16.05-16.05-42.06-16.05-58.11,0h0c-16.05,16.05-16.05,42.06,0,58.11,12.42,12.42,30.8,15.18,45.92,8.37Z"/><path class="cls-1" d="M243.65,424.89h0c11.78-11.78,11.78-30.88,0-42.66h0c-11.78-11.78-30.88-11.78-42.66,0h0c-11.78,11.78-11.78,30.88,0,42.67,11.78,11.78,30.88,11.78,42.66,0Z"/><path class="cls-1" d="M523.22,341.99h0c7.16-7.16,11.1-16.31,11.87-25.67,21.1-1.73,37.7-19.37,37.7-40.92h0c0-5.21-1.01-10.18-2.78-14.76,14.69,5.65,31.97,2.58,43.82-9.27h0c16.04-16.05,16.04-42.06,0-58.11h0c-16.05-16.05-42.06-16.05-58.11,0h0c-11.85,11.85-14.92,29.13-9.27,43.83-4.59-1.77-9.55-2.78-14.76-2.78-21.55,0-39.19,16.59-40.92,37.7-9.36.77-18.51,4.71-25.67,11.87h0c-16.05,16.05-16.05,42.06,0,58.11,16.05,16.05,42.06,16.05,58.11,0Z"/><path class="cls-1" d="M283.88,465.12c-9.98,9.98-13.74,23.81-11.31,36.71-15.31,1.45-27.34,14.19-27.34,29.88h0c0,16.66,13.51,30.17,30.17,30.17,15.69,0,28.44-12.02,29.88-27.34,12.89,2.43,26.73-1.33,36.7-11.31h0c16.05-16.05,16.05-42.06,0-58.11-16.05-16.05-42.06-16.05-58.11,0Z"/><path class="cls-1" d="M243.65,563.46h0c-11.78-11.78-30.88-11.78-42.66,0-11.78,11.78-11.78,30.88,0,42.66h0c11.78,11.78,30.88,11.78,42.66,0,11.78-11.78,11.78-30.88,0-42.66Z"/><path class="cls-1" d="M696.73,291.61c-2.57-2.57-5.52-4.47-8.63-5.92,1.17-3.22,1.92-6.66,1.92-10.29,0-16.66-13.51-30.17-30.17-30.17h0c-16.66,0-30.16,13.51-30.16,30.16h0c0,12.1,7.16,22.45,17.44,27.26-3.86,10.67-1.6,23.05,6.95,31.61h0c11.78,11.78,30.88,11.78,42.66,0h0c11.78-11.78,11.78-30.88,0-42.66h0Z"/><path class="cls-1" d="M613.84,374.5c-16.05-16.05-42.06-16.05-58.11,0h0c-16.05,16.05-16.05,42.06,0,58.11h0c16.05,16.05,42.06,16.05,58.11,0h0c3.68-3.69,6.48-7.91,8.47-12.4,6.39,14.39,20.78,24.44,37.54,24.44h0c22.69,0,41.08-18.39,41.08-41.08h0c0-22.69-18.4-41.09-41.09-41.09h0c-16.76,0-31.15,10.05-37.54,24.43-1.99-4.49-4.79-8.72-8.47-12.4h0Z"/><path class="cls-1" d="M334.27,654.07c-5.67-5.67-13.04-8.54-20.47-8.75-5.88-15.51-20.83-26.55-38.39-26.55h0c-22.69,0-41.09,18.39-41.09,41.09h0c0,22.69,18.4,41.09,41.09,41.09,6.02,0,11.73-1.33,16.88-3.66,11.82,11.16,30.42,11.02,41.99-.55,11.78-11.78,11.78-30.88,0-42.66h0Z"/><path class="cls-1" d="M795.07,374.5h0c-16.05-16.05-42.06-16.05-58.11,0h0c-16.05,16.05-16.05,42.06,0,58.11h0c16.05,16.05,42.06,16.05,58.11,0h0c16.05-16.05,16.05-42.06,0-58.11Z"/><path class="cls-1" d="M696.74,472.84h0c-11.78-11.78-30.88-11.78-42.66,0h0c-5.67,5.67-8.54,13.05-8.75,20.48-15.51,5.88-26.55,20.83-26.55,38.39,0,22.69,18.4,41.09,41.09,41.09h0c22.69,0,41.08-18.39,41.08-41.08h0c0-6.03-1.33-11.73-3.66-16.88,11.16-11.82,11.02-30.42-.55-41.99Z"/><path class="cls-1" d="M613.84,555.73c-11.85-11.85-29.13-14.92-43.82-9.27,1.77-4.59,2.78-9.55,2.78-14.76h0c0-22.69-18.4-41.09-41.09-41.09s-41.09,18.4-41.09,41.09h0c0,22.69,18.39,41.09,41.08,41.09h0c5.21,0,10.17-1.01,14.76-2.78-5.65,14.7-2.58,31.97,9.27,43.82h0c16.04,16.05,42.06,16.05,58.1,0h0c16.05-16.05,16.05-42.06,0-58.11h0Z"/><path class="cls-1" d="M424.88,744.69c-11.78-11.78-30.88-11.78-42.66,0-11.78,11.78-11.78,30.88,0,42.66h0c11.78,11.78,30.88,11.78,42.66,0,11.78-11.78,11.78-30.88,0-42.66h0Z"/><path class="cls-1" d="M272.89,364.56c-.07-.27-.17-.52-.29-.74-.12-.23-.28-.42-.47-.59-.19-.16-.41-.29-.67-.38-.26-.09-.55-.14-.89-.14-.49,0-.92.1-1.28.3-.36.2-.65.47-.88.8-.23.33-.39.71-.5,1.14-.11.43-.16.86-.16,1.3s.05.88.16,1.3c.11.43.28.8.5,1.14.23.33.52.6.88.8.36.2.79.3,1.28.3.36,0,.68-.06.96-.19.28-.13.52-.3.72-.52s.36-.48.47-.77c.11-.29.19-.61.22-.95h1.59c-.03.56-.15,1.06-.36,1.52-.2.46-.48.86-.83,1.19s-.75.59-1.22.77-.98.27-1.55.27c-.69,0-1.32-.13-1.87-.38s-1.02-.6-1.4-1.05c-.38-.44-.67-.96-.88-1.55-.2-.59-.31-1.22-.31-1.89s.1-1.28.31-1.87c.2-.59.5-1.11.88-1.55.38-.44.85-.79,1.4-1.05.55-.26,1.17-.39,1.87-.39.52,0,1.01.07,1.47.21.46.14.87.35,1.22.63.35.27.64.6.85,1,.22.39.35.84.4,1.34h-1.63Z"/><path class="cls-1" d="M275.75,361.61h6.69v1.41h-5.06v2.43h4.68v1.33h-4.68v2.72h5.15v1.41h-6.78v-9.29Z"/><path class="cls-1" d="M283.62,361.61h1.72l4.24,6.84h.03v-6.84h1.55v9.29h-1.72l-4.23-6.83h-.04v6.83h-1.55v-9.29Z"/><path class="cls-1" d="M291.94,361.61h7.52v1.41h-2.95v7.89h-1.63v-7.89h-2.94v-1.41Z"/><path class="cls-1" d="M300.28,361.61h6.69v1.41h-5.06v2.43h4.68v1.33h-4.68v2.72h5.15v1.41h-6.78v-9.29Z"/><path class="cls-1" d="M308.22,361.61h4.44c1.02,0,1.79.22,2.3.66.51.44.77,1.06.77,1.85,0,.44-.06.81-.2,1.1-.13.29-.28.53-.46.7s-.34.31-.51.38c-.17.08-.29.13-.37.16v.03c.14.02.29.06.45.13s.31.18.45.33c.14.15.25.35.34.59.09.24.14.55.14.91,0,.55.04,1.04.12,1.49.08.45.21.77.38.96h-1.74c-.12-.2-.19-.42-.21-.66-.02-.24-.03-.48-.03-.7,0-.42-.03-.79-.08-1.1-.05-.31-.15-.56-.29-.77-.14-.2-.33-.35-.57-.45-.24-.09-.54-.14-.92-.14h-2.39v3.83h-1.63v-9.29ZM309.84,365.84h2.67c.52,0,.92-.12,1.18-.37.27-.25.4-.62.4-1.11,0-.29-.04-.54-.13-.72-.09-.19-.21-.33-.36-.44s-.33-.17-.52-.21c-.19-.03-.4-.05-.6-.05h-2.64v2.9Z"/><path class="cls-1" d="M320.47,361.61h6.41v1.41h-4.79v2.43h4.2v1.33h-4.2v4.12h-1.63v-9.29Z"/><path class="cls-1" d="M331.88,361.39c.69,0,1.32.13,1.87.39.55.26,1.02.61,1.4,1.05s.67.96.88,1.55c.2.59.31,1.21.31,1.87s-.1,1.3-.31,1.89c-.2.59-.5,1.11-.88,1.55-.38.44-.85.79-1.4,1.05-.55.26-1.17.38-1.87.38s-1.32-.13-1.87-.38-1.02-.6-1.4-1.05c-.38-.44-.67-.96-.88-1.55-.2-.59-.31-1.22-.31-1.89s.1-1.28.31-1.87c.2-.59.5-1.11.88-1.55.38-.44.85-.79,1.4-1.05.55-.26,1.17-.39,1.87-.39ZM331.88,362.71c-.49,0-.92.1-1.28.3-.36.2-.65.47-.88.8-.23.33-.39.71-.5,1.14-.11.43-.16.86-.16,1.3s.05.88.16,1.3c.11.43.28.8.5,1.14.23.33.52.6.88.8.36.2.79.3,1.28.3s.92-.1,1.28-.3c.36-.2.65-.47.88-.8.23-.33.39-.71.5-1.14.11-.42.16-.86.16-1.3s-.05-.88-.16-1.3c-.11-.42-.28-.8-.5-1.14-.23-.33-.52-.6-.88-.8-.36-.2-.79-.3-1.28-.3Z"/><path class="cls-1" d="M337.56,361.61h4.44c1.02,0,1.79.22,2.3.66.51.44.77,1.06.77,1.85,0,.44-.06.81-.2,1.1-.13.29-.28.53-.46.7s-.34.31-.51.38c-.17.08-.29.13-.37.16v.03c.14.02.29.06.45.13s.31.18.45.33c.14.15.25.35.34.59.09.24.14.55.14.91,0,.55.04,1.04.12,1.49.08.45.21.77.38.96h-1.74c-.12-.2-.19-.42-.21-.66-.02-.24-.03-.48-.03-.7,0-.42-.03-.79-.08-1.1-.05-.31-.15-.56-.29-.77-.14-.2-.33-.35-.57-.45-.24-.09-.54-.14-.92-.14h-2.39v3.83h-1.63v-9.29ZM339.18,365.84h2.67c.52,0,.92-.12,1.18-.37.27-.25.4-.62.4-1.11,0-.29-.04-.54-.13-.72-.09-.19-.21-.33-.36-.44s-.33-.17-.52-.21c-.19-.03-.4-.05-.6-.05h-2.64v2.9Z"/><path class="cls-1" d="M350.82,387.56c-.39-.59-.91-1.06-1.54-1.41-.64-.35-1.41-.53-2.32-.53s-1.68.18-2.32.53c-.63.35-1.15.82-1.54,1.41-.39.59-.68,1.27-.86,2.02-.18.76-.27,1.54-.27,2.34s.09,1.52.27,2.25.47,1.39.86,1.97c.39.58.91,1.05,1.54,1.4.63.35,1.41.53,2.32.53s1.68-.18,2.32-.53c.63-.35,1.15-.82,1.54-1.4.39-.58.68-1.24.86-1.97.18-.73.27-1.48.27-2.25s-.09-1.59-.27-2.34c-.18-.75-.47-1.43-.86-2.02Z"/><polygon class="cls-1" points="424.17 412.3 421.78 419.04 426.54 419.04 424.22 412.3 424.17 412.3"/><path class="cls-1" d="M368.85,412.67c-.4-.59-.91-1.06-1.54-1.41-.63-.35-1.41-.53-2.32-.53s-1.68.18-2.32.53c-.63.35-1.15.82-1.54,1.41-.39.59-.68,1.27-.86,2.02-.18.76-.27,1.54-.27,2.34s.09,1.52.27,2.25c.18.73.47,1.39.86,1.97.39.58.91,1.05,1.54,1.4.63.35,1.41.53,2.32.53s1.68-.18,2.32-.53c.63-.35,1.15-.82,1.54-1.4.39-.58.68-1.24.86-1.97.18-.73.27-1.48.27-2.25s-.09-1.59-.27-2.34c-.18-.75-.47-1.43-.86-2.02Z"/><path class="cls-1" d="M384.73,410.91h-4.43v5.17h4.43c.93,0,1.62-.21,2.08-.62.46-.41.69-1.08.69-2.01s-.23-1.54-.69-1.94c-.46-.4-1.16-.6-2.08-.6Z"/><path class="cls-1" d="M300.8,411.41c-.33-.2-.7-.33-1.13-.4-.43-.07-.88-.1-1.34-.1h-3.14v5.51h3.14c.46,0,.91-.03,1.34-.1.43-.07.81-.2,1.13-.4.33-.2.59-.48.78-.84.2-.36.3-.83.3-1.41s-.1-1.06-.3-1.42c-.2-.36-.46-.64-.78-.84Z"/><path class="cls-1" d="M332.42,410.91h-4.43v5.17h4.43c.93,0,1.62-.21,2.08-.62.46-.41.69-1.08.69-2.01s-.23-1.54-.69-1.94c-.46-.4-1.16-.6-2.08-.6Z"/><path class="cls-1" d="M416.73,396.14c.39.58.91,1.05,1.54,1.4.63.35,1.41.53,2.32.53s1.68-.18,2.32-.53c.63-.35,1.15-.82,1.54-1.4.39-.58.68-1.24.86-1.97s.27-1.48.27-2.25-.09-1.59-.27-2.34c-.18-.75-.47-1.43-.86-2.02-.4-.59-.91-1.06-1.54-1.41s-1.41-.53-2.32-.53-1.68.18-2.32.53c-.63.35-1.15.82-1.54,1.41-.39.59-.68,1.27-.86,2.02-.18.76-.27,1.54-.27,2.34s.09,1.52.27,2.25c.18.73.47,1.39.86,1.97Z"/><path class="cls-1" d="M271.55,418.52c-.31.19-.58.41-.82.67-.24.26-.43.54-.58.85-.15.31-.22.65-.22,1.03,0,.33.07.64.22.94.15.3.34.56.58.77.24.22.52.39.84.52.32.13.65.19.99.19.65,0,1.22-.15,1.71-.45.49-.3.95-.69,1.38-1.17l-3.14-3.83c-.33.14-.64.3-.95.49Z"/><path class="cls-1" d="M331.21,390.35c.46-.41.69-1.08.69-2.01s-.23-1.54-.69-1.94c-.46-.4-1.16-.6-2.08-.6h-4.43v5.17h4.43c.93,0,1.62-.21,2.08-.62Z"/><path class="cls-1" d="M273.58,414.38c.51-.33.96-.68,1.32-1.05s.55-.9.55-1.57c0-.48-.17-.89-.5-1.24-.33-.34-.73-.51-1.17-.51s-.83.15-1.16.45c-.33.3-.49.69-.49,1.17,0,.58.15,1.08.46,1.49s.63.83.98,1.26Z"/><path class="cls-1" d="M495.49,387.56c-.4-.59-.91-1.06-1.54-1.41-.63-.35-1.41-.53-2.32-.53s-1.68.18-2.32.53c-.63.35-1.15.82-1.54,1.41-.39.59-.68,1.27-.86,2.02-.18.76-.27,1.54-.27,2.34s.09,1.52.27,2.25c.18.73.47,1.39.86,1.97.39.58.91,1.05,1.54,1.4.63.35,1.41.53,2.32.53s1.68-.18,2.32-.53c.63-.35,1.15-.82,1.54-1.4.39-.58.68-1.24.86-1.97.18-.73.27-1.48.27-2.25s-.09-1.59-.27-2.34c-.18-.75-.47-1.43-.86-2.02Z"/><path class="cls-1" d="M264.03,378.56v51.42h225.08v-24.59h34.09v-26.83h-259.17ZM476.32,382.66h4.04v18.37h-4.04v-18.37ZM434.05,382.66l4.09,12.92h.05l4.14-12.92h4.17l-6.1,18.37h-4.55l-5.94-18.37h4.14ZM412.18,388.1c.41-1.17,1-2.2,1.78-3.07.77-.88,1.72-1.56,2.84-2.06,1.12-.5,2.39-.75,3.8-.75s2.69.25,3.81.75c1.11.5,2.06,1.18,2.83,2.06.77.87,1.36,1.9,1.77,3.07s.62,2.45.62,3.82-.21,2.59-.62,3.74c-.41,1.16-1,2.17-1.77,3.02-.77.86-1.72,1.53-2.83,2.02-1.12.49-2.38.73-3.81.73s-2.67-.24-3.8-.73c-1.12-.49-2.07-1.16-2.84-2.02-.77-.86-1.36-1.87-1.78-3.02-.41-1.16-.62-2.41-.62-3.74s.21-2.65.62-3.82ZM368.18,382.66h4.04v18.37h-4.04v-18.37ZM357.81,392.43h7.74v3.14h-7.74v-3.14ZM320.66,382.66h9.91c.82,0,1.57.13,2.23.4.66.27,1.23.63,1.7,1.09.47.46.83,1,1.08,1.61.25.61.37,1.27.37,1.97,0,1.08-.23,2.02-.68,2.8-.45.79-1.2,1.39-2.23,1.8v.05c.5.14.91.35,1.24.63.33.28.59.62.8,1,.21.39.36.81.45,1.27.09.46.16.93.19,1.39.02.29.03.63.05,1.03.02.39.05.8.09,1.21.04.41.11.8.21,1.17.09.37.24.68.42.94h-4.04c-.22-.58-.36-1.28-.41-2.08-.05-.81-.13-1.58-.23-2.32-.14-.96-.43-1.66-.87-2.11-.45-.45-1.17-.67-2.19-.67h-4.04v7.18h-4.04v-18.37ZM302.03,382.66h4.04v11.42c0,.5.04.99.13,1.47.09.48.27.9.54,1.27.27.37.66.67,1.14.9.49.23,1.14.35,1.97.35,1.44,0,2.44-.32,2.98-.96.55-.64.82-1.65.82-3.02v-11.42h4.04v11.42c0,2.49-.69,4.33-2.08,5.54-1.39,1.21-3.31,1.81-5.76,1.81s-4.41-.6-5.78-1.8c-1.36-1.2-2.05-3.05-2.05-5.56v-11.42ZM267.4,382.66h4.01l7.67,12.32h.05v-12.32h3.78v18.37h-4.04l-7.64-12.3h-.05v12.3h-3.78v-18.37ZM279.06,426.14l-1.49-1.83c-.74.72-1.52,1.26-2.35,1.62-.83.36-1.77.54-2.82.54-.82,0-1.6-.12-2.33-.36-.73-.24-1.36-.6-1.89-1.07-.53-.47-.95-1.05-1.26-1.72-.31-.68-.46-1.45-.46-2.33,0-.65.11-1.25.33-1.79s.53-1.03.91-1.47c.39-.44.83-.83,1.32-1.17.5-.34,1.01-.64,1.54-.9-.5-.6-.91-1.2-1.25-1.8-.33-.6-.5-1.3-.5-2.11,0-.63.13-1.21.4-1.72.27-.51.62-.96,1.07-1.32.45-.37.96-.65,1.53-.85.57-.2,1.17-.3,1.79-.3.7,0,1.36.09,1.97.28.61.19,1.14.47,1.6.84.45.37.81.83,1.08,1.38.27.55.4,1.18.4,1.9,0,1.08-.31,1.99-.94,2.73-.63.74-1.4,1.36-2.33,1.85l2.37,2.91c.19-.34.33-.7.44-1.07.1-.37.18-.74.23-1.12h3.16c-.09.82-.27,1.62-.57,2.39-.29.77-.69,1.48-1.21,2.14l3.73,4.35h-4.48ZM285.95,382.66h13.74v3.4h-9.7v3.94h8.9v3.14h-8.9v4.5h9.91v3.4h-13.95v-18.37ZM305.44,415.84c-.23.71-.6,1.34-1.11,1.89-.51.55-1.16.99-1.97,1.33-.81.33-1.78.5-2.93.5h-4.25v6.59h-4.04v-18.37h8.29c1.15,0,2.13.17,2.93.5.81.33,1.46.78,1.97,1.32.51.55.87,1.18,1.11,1.88.23.7.35,1.43.35,2.19s-.12,1.46-.35,2.17ZM321.74,426.14h-13.95v-18.37h13.74v3.4h-9.7v3.94h8.9v3.14h-8.9v4.5h9.91v3.4ZM335.74,426.14c-.22-.58-.36-1.28-.41-2.08-.05-.81-.13-1.58-.23-2.32-.14-.96-.43-1.66-.87-2.11-.45-.45-1.17-.67-2.19-.67h-4.04v7.18h-4.04v-18.37h9.91c.82,0,1.57.13,2.23.4.66.27,1.23.63,1.7,1.09.47.46.83,1,1.08,1.61.25.61.37,1.27.37,1.97,0,1.08-.23,2.02-.68,2.8-.45.79-1.2,1.39-2.23,1.8v.05c.5.14.91.35,1.24.63.33.28.59.62.8,1,.21.39.36.81.45,1.27.09.46.16.93.19,1.39.02.29.03.63.05,1.03.02.39.05.8.09,1.21.04.41.11.8.21,1.17.09.37.24.68.42.94h-4.04ZM354.93,411.17h-8.88v4.24h7.69v3.14h-7.69v7.59h-4.04v-18.37h12.92v3.4ZM353.59,398.68c-.77.86-1.71,1.53-2.83,2.02-1.12.49-2.39.73-3.81.73s-2.67-.24-3.79-.73c-1.12-.49-2.07-1.16-2.84-2.02-.77-.86-1.36-1.87-1.78-3.02-.41-1.16-.62-2.41-.62-3.74s.21-2.65.62-3.82,1-2.2,1.78-3.07c.77-.88,1.72-1.56,2.84-2.06,1.12-.5,2.39-.75,3.79-.75s2.69.25,3.81.75c1.11.5,2.06,1.18,2.83,2.06.77.87,1.36,1.9,1.78,3.07s.62,2.45.62,3.82-.21,2.59-.62,3.74c-.41,1.16-1,2.17-1.78,3.02ZM373.41,420.78c-.41,1.16-1,2.17-1.77,3.02-.77.86-1.72,1.53-2.83,2.02-1.12.49-2.38.73-3.81.73s-2.67-.24-3.8-.73c-1.12-.49-2.07-1.16-2.84-2.02-.77-.86-1.36-1.87-1.78-3.02-.41-1.16-.62-2.41-.62-3.74s.21-2.65.62-3.82,1-2.2,1.78-3.07c.77-.88,1.72-1.56,2.84-2.06,1.12-.5,2.39-.75,3.8-.75s2.69.25,3.81.75c1.11.5,2.06,1.18,2.83,2.06.77.87,1.36,1.9,1.77,3.07s.62,2.45.62,3.82-.21,2.59-.62,3.74ZM375.26,382.66h4.01l7.67,12.32h.05v-12.32h3.78v18.37h-4.04l-7.64-12.3h-.05v12.3h-3.78v-18.37ZM388.05,426.14c-.22-.58-.36-1.28-.41-2.08-.05-.81-.13-1.58-.23-2.32-.14-.96-.43-1.66-.88-2.11-.45-.45-1.17-.67-2.19-.67h-4.04v7.18h-4.04v-18.37h9.91c.82,0,1.56.13,2.23.4.66.27,1.23.63,1.7,1.09.47.46.83,1,1.08,1.61.25.61.37,1.27.37,1.97,0,1.08-.23,2.02-.68,2.8-.45.79-1.2,1.39-2.23,1.8v.05c.5.14.91.35,1.23.63.33.28.59.62.8,1,.21.39.36.81.45,1.27.09.46.16.93.19,1.39.02.29.03.63.05,1.03s.05.8.09,1.21c.04.41.11.8.21,1.17.09.37.24.68.42.94h-4.04ZM393.81,382.66h4.01l7.67,12.32h.05v-12.32h3.78v18.37h-4.04l-7.64-12.3h-.05v12.3h-3.78v-18.37ZM414.11,426.14h-3.78v-13.02h-.05l-4.5,13.02h-3.11l-4.5-12.89h-.05v12.89h-3.78v-18.37h5.69l4.3,12.63h.05l4.07-12.63h5.69v18.37ZM428.98,426.14l-1.39-4.09h-6.87l-1.44,4.09h-4.07l6.95-18.37h4.14l6.87,18.37h-4.19ZM449.77,426.14h-4.04l-7.64-12.3h-.05v12.3h-3.78v-18.37h4.01l7.67,12.32h.05v-12.32h3.78v18.37ZM448.51,401.03h-4.07l6.95-18.37h4.14l6.87,18.37h-4.19l-1.39-4.09h-6.87l-1.44,4.09ZM468.32,422.18c-.43.93-1,1.72-1.7,2.37-.7.65-1.53,1.15-2.47,1.49-.94.34-1.98.51-3.11.51-1.41,0-2.67-.24-3.8-.73-1.12-.49-2.07-1.16-2.84-2.02-.77-.86-1.36-1.87-1.78-3.02-.41-1.16-.62-2.41-.62-3.74s.21-2.65.62-3.82,1-2.2,1.78-3.07c.77-.88,1.72-1.56,2.84-2.06,1.12-.5,2.39-.75,3.8-.75,1.01,0,1.97.15,2.87.44.9.29,1.71.72,2.42,1.27.71.56,1.3,1.25,1.76,2.07.46.82.75,1.77.87,2.83h-3.91c-.07-.46-.22-.89-.46-1.27-.24-.39-.54-.72-.9-1.02-.36-.29-.77-.52-1.22-.68-.45-.16-.93-.24-1.43-.24-.91,0-1.68.18-2.32.53-.63.35-1.15.82-1.54,1.41-.39.59-.68,1.27-.86,2.02-.18.76-.27,1.54-.27,2.34s.09,1.52.27,2.25c.18.73.47,1.39.86,1.97.39.58.91,1.05,1.54,1.4.63.35,1.41.53,2.32.53,1.24,0,2.2-.38,2.89-1.13.69-.75,1.12-1.75,1.27-2.98h3.91c-.1,1.15-.37,2.19-.8,3.11ZM469.22,401.03h-4.04v-14.97h-5.51v-3.4h15.05v3.4h-5.51v14.97ZM485.3,426.14h-13.94v-18.37h13.74v3.4h-9.7v3.94h8.9v3.14h-8.9v4.5h9.91v3.4ZM500.04,395.66c-.41,1.16-1,2.17-1.77,3.02-.77.86-1.72,1.53-2.83,2.02-1.12.49-2.38.73-3.81.73s-2.67-.24-3.8-.73c-1.12-.49-2.07-1.16-2.84-2.02-.77-.86-1.36-1.87-1.78-3.02-.41-1.16-.62-2.41-.62-3.74s.21-2.65.62-3.82c.41-1.17,1-2.2,1.78-3.07.77-.88,1.72-1.56,2.84-2.06,1.12-.5,2.39-.75,3.8-.75s2.69.25,3.81.75c1.11.5,2.06,1.18,2.83,2.06.77.87,1.36,1.9,1.77,3.07s.62,2.45.62,3.82-.21,2.59-.62,3.74ZM518.42,401.03h-4.04l-7.64-12.3h-.05v12.3h-3.78v-18.37h4.01l7.67,12.32h.05v-12.32h3.78v18.37Z"/><polygon class="cls-1" points="453.4 387.18 451.01 393.92 455.76 393.92 453.45 387.18 453.4 387.18"/></g></svg>