<?xml version="1.0" encoding="UTF-8"?><svg id="Layer_2" xmlns="http://www.w3.org/2000/svg" viewBox="0 0 923.61 321.28"><g id="Layer_1-2"><path d="M59.42,76h0c9.16,0,16.58-7.42,16.58-16.58h0c0-9.16-7.42-16.58-16.58-16.58h0c-9.16,0-16.58,7.42-16.58,16.58h0c0,9.16,7.42,16.58,16.58,16.58Z"/><path d="M59.42,146.26h0c-9.16,0-16.58,7.42-16.58,16.58h0c0,9.16,7.42,16.58,16.58,16.58h0c9.16,0,16.58-7.42,16.58-16.58h0c0-9.16-7.42-16.58-16.58-16.58Z"/><path d="M59.42,226.73h0c6.72,0,12.17-5.45,12.17-12.17,0-3.24-1.28-6.16-3.34-8.34,2.75-6.1,1.63-13.52-3.38-18.53h0c-6.47-6.48-16.97-6.48-23.45,0h0c-6.47,6.48-6.47,16.97,0,23.45,1.72,1.72,3.72,2.97,5.86,3.77.19,6.56,5.53,11.82,12.14,11.82Z"/><path d="M59.42,249.68c-9.16,0-16.58,7.42-16.58,16.58s7.42,16.58,16.58,16.58,16.58-7.42,16.58-16.58h0c0-9.16-7.42-16.58-16.58-16.58Z"/><path d="M111.13,76c7.09,0,13.12-4.46,15.49-10.71,3-.09,5.97-1.24,8.26-3.53,4.75-4.75,4.75-12.46,0-17.22h0c-4.67-4.67-12.17-4.73-16.94-.22-2.08-.94-4.38-1.47-6.81-1.47-9.16,0-16.58,7.42-16.58,16.58h0c0,9.16,7.42,16.58,16.58,16.58Z"/><path d="M111.13,98.96h0c-6.72,0-12.17,5.45-12.17,12.17h0c0,6.72,5.45,12.17,12.17,12.17s12.17-5.45,12.17-12.17h0c0-6.72-5.45-12.17-12.17-12.17Z"/><path d="M162.84,42.84c-9.16,0-16.58,7.42-16.58,16.58h0c0,9.16,7.42,16.58,16.58,16.58h0c9.16,0,16.58-7.42,16.58-16.58h0c0-9.16-7.42-16.58-16.58-16.58Z"/><path d="M172.17,97.43c3.96-4.78,3.75-11.85-.73-16.33h0c-4.75-4.75-12.46-4.75-17.21,0h0c-4.48,4.48-4.68,11.55-.73,16.33-4.37,2.99-7.25,8.01-7.25,13.7h0c0,9.16,7.42,16.58,16.58,16.58h0c9.16,0,16.58-7.42,16.58-16.58h0c0-5.7-2.87-10.72-7.25-13.7Z"/><path d="M162.84,197.97c-9.16,0-16.58,7.42-16.58,16.58,0,4.09,1.49,7.82,3.94,10.71-5.53,6.51-5.23,16.28.92,22.43h0c6.47,6.48,16.97,6.48,23.45,0h0c6.15-6.15,6.45-15.92.92-22.43,2.45-2.89,3.94-6.63,3.94-10.71h0c0-9.16-7.42-16.58-16.58-16.58Z"/><path d="M162.84,254.09h0c-6.72,0-12.17,5.45-12.17,12.17h0c0,6.72,5.45,12.17,12.17,12.17h0c6.72,0,12.17-5.45,12.17-12.17s-5.45-12.17-12.17-12.17Z"/><path d="M214.55,254.09h0c-3.24,0-6.16,1.28-8.34,3.34-6.1-2.75-13.52-1.63-18.53,3.38h0c-6.47,6.47-6.47,16.97,0,23.45h0c6.47,6.48,16.97,6.48,23.44,0h0c1.72-1.72,2.97-3.73,3.77-5.86,6.56-.19,11.82-5.53,11.82-12.14s-5.45-12.17-12.17-12.17Z"/><path d="M266.26,76c9.16,0,16.58-7.42,16.58-16.58h0c0-9.16-7.42-16.58-16.58-16.58s-16.58,7.42-16.58,16.58h0c0,9.16,7.42,16.58,16.58,16.58Z"/><path d="M266.26,254.09h0c-6.72,0-12.17,5.45-12.17,12.17h0c0,6.72,5.45,12.17,12.17,12.17h0c6.72,0,12.17-5.45,12.17-12.17s-5.45-12.17-12.17-12.17Z"/><path d="M174.56,4.86c-6.47-6.47-16.97-6.47-23.45,0h0c-6.47,6.48-6.47,16.97,0,23.45h0c6.47,6.48,16.97,6.48,23.45,0h0c6.47-6.48,6.47-16.97,0-23.45h0Z"/><path d="M77.99,101.43h0c6.47,6.48,16.97,6.48,23.44,0h0c6.47-6.48,6.47-16.97,0-23.45h0c-6.47-6.47-16.97-6.47-23.45,0h0c-6.47,6.48-6.47,16.97,0,23.45Z"/><path d="M44.54,134.88c4.75,4.75,12.46,4.75,17.22,0,3.45-3.45,4.36-8.45,2.8-12.75,4.15-1.94,7.04-6.12,7.04-11,0-6.72-5.45-12.17-12.17-12.17h0c-6.72,0-12.17,5.45-12.17,12.17h0c0,1.47.3,2.85.77,4.15-1.25.58-2.45,1.35-3.48,2.39h0c-4.75,4.76-4.75,12.46,0,17.22h0Z"/><path d="M28.3,151.12c-6.48-6.47-16.97-6.47-23.45,0h0c-6.47,6.48-6.47,16.97,0,23.45,6.47,6.47,16.97,6.47,23.45,0h0c6.47-6.47,6.47-16.97,0-23.45h0Z"/><path d="M206.21,68.25c2.18,2.06,5.1,3.34,8.34,3.34,6.72,0,12.17-5.45,12.17-12.17h0c0-6.6-5.27-11.95-11.82-12.14-.81-2.14-2.05-4.14-3.77-5.86-6.47-6.47-16.97-6.47-23.45,0h0c-6.47,6.48-6.47,16.97,0,23.45,5.01,5.01,12.43,6.13,18.53,3.38Z"/><path d="M98.32,171.45h0c4.75-4.75,4.75-12.46,0-17.22h0c-4.75-4.75-12.46-4.75-17.21,0h0c-4.75,4.75-4.75,12.46,0,17.22,4.75,4.75,12.46,4.75,17.22,0Z"/><path d="M211.13,138h0c2.89-2.89,4.48-6.58,4.79-10.36,8.51-.7,15.21-7.82,15.21-16.51h0c0-2.1-.41-4.11-1.12-5.96,5.93,2.28,12.9,1.04,17.68-3.74h0c6.47-6.48,6.47-16.97,0-23.45h0c-6.47-6.47-16.97-6.47-23.45,0h0c-4.78,4.78-6.02,11.76-3.74,17.68-1.85-.71-3.85-1.12-5.96-1.12-8.69,0-15.81,6.7-16.51,15.21-3.78.31-7.47,1.9-10.36,4.79h0c-6.47,6.48-6.47,16.97,0,23.45,6.47,6.47,16.97,6.47,23.45,0Z"/><path d="M114.55,187.68c-4.03,4.03-5.55,9.61-4.56,14.81-6.18.58-11.03,5.72-11.03,12.06h0c0,6.72,5.45,12.17,12.17,12.17,6.33,0,11.47-4.85,12.06-11.03,5.2.98,10.78-.54,14.81-4.56h0c6.47-6.48,6.47-16.97,0-23.45-6.47-6.48-16.97-6.48-23.45,0Z"/><path d="M98.32,227.36h0c-4.75-4.75-12.46-4.75-17.21,0-4.75,4.75-4.75,12.46,0,17.22h0c4.75,4.75,12.46,4.75,17.21,0,4.75-4.75,4.75-12.46,0-17.22Z"/><path d="M281.14,117.67c-1.04-1.04-2.23-1.8-3.48-2.39.47-1.3.77-2.69.77-4.15,0-6.72-5.45-12.17-12.17-12.17h0c-6.72,0-12.17,5.45-12.17,12.17h0c0,4.88,2.89,9.06,7.04,11-1.56,4.3-.65,9.3,2.8,12.75h0c4.75,4.75,12.46,4.75,17.22,0h0c4.75-4.75,4.75-12.46,0-17.22h0Z"/><path d="M247.69,151.12c-6.47-6.48-16.97-6.48-23.45,0h0c-6.47,6.48-6.47,16.97,0,23.45h0c6.47,6.48,16.97,6.48,23.45,0h0c1.49-1.49,2.62-3.19,3.42-5.01,2.58,5.81,8.39,9.86,15.15,9.86h0c9.16,0,16.58-7.42,16.58-16.58h0c0-9.16-7.42-16.58-16.58-16.58h0c-6.76,0-12.57,4.05-15.15,9.86-.8-1.81-1.93-3.52-3.42-5h0Z"/><path d="M134.88,263.93c-2.29-2.29-5.26-3.45-8.26-3.53-2.37-6.26-8.4-10.71-15.49-10.71h0c-9.16,0-16.58,7.42-16.58,16.58h0c0,9.16,7.42,16.58,16.58,16.58,2.43,0,4.73-.54,6.81-1.48,4.77,4.5,12.27,4.45,16.94-.22,4.75-4.75,4.75-12.46,0-17.21h0Z"/><path d="M320.83,151.12h0c-6.47-6.48-16.97-6.48-23.45,0h0c-6.47,6.48-6.47,16.97,0,23.45h0c6.47,6.48,16.97,6.48,23.45,0h0c6.47-6.48,6.47-16.97,0-23.45Z"/><path d="M281.14,190.8h0c-4.75-4.75-12.46-4.75-17.21,0h0c-2.29,2.29-3.45,5.26-3.53,8.26-6.26,2.37-10.71,8.4-10.71,15.49,0,9.16,7.42,16.58,16.58,16.58h0c9.16,0,16.58-7.42,16.58-16.58h0c0-2.43-.54-4.73-1.48-6.81,4.5-4.77,4.45-12.27-.22-16.94Z"/><path d="M247.69,224.25c-4.78-4.78-11.75-6.02-17.68-3.74.71-1.85,1.12-3.85,1.12-5.96h0c0-9.16-7.42-16.58-16.58-16.58s-16.58,7.42-16.58,16.58h0c0,9.16,7.42,16.58,16.58,16.58h0c2.1,0,4.1-.41,5.95-1.12-2.28,5.93-1.04,12.9,3.74,17.68h0c6.47,6.48,16.97,6.48,23.44,0h0c6.47-6.48,6.47-16.97,0-23.45h0Z"/><path d="M171.45,300.49c-4.75-4.75-12.46-4.75-17.21,0-4.75,4.75-4.75,12.46,0,17.22h0c4.75,4.76,12.46,4.76,17.21,0,4.75-4.75,4.75-12.46,0-17.22h0Z"/><path d="M394.17,92.43c-.15-.57-.35-1.09-.61-1.57-.26-.48-.59-.89-.99-1.24-.4-.35-.88-.62-1.42-.81-.54-.19-1.17-.29-1.89-.29-1.05,0-1.95.21-2.71.63-.76.42-1.38.99-1.86,1.69-.48.71-.83,1.51-1.06,2.41-.23.9-.34,1.82-.34,2.75s.11,1.85.34,2.75c.23.9.58,1.7,1.06,2.41.48.71,1.1,1.27,1.86,1.69.76.42,1.66.63,2.71.63.77,0,1.45-.13,2.04-.4.59-.27,1.09-.63,1.51-1.1s.75-1.01.99-1.64c.24-.62.4-1.29.47-2.01h3.36c-.07,1.18-.33,2.25-.76,3.22-.43.97-1.01,1.81-1.75,2.52s-1.6,1.25-2.59,1.64c-.99.39-2.08.58-3.27.58-1.47,0-2.78-.27-3.95-.81s-2.15-1.28-2.96-2.21c-.81-.94-1.43-2.03-1.86-3.28-.43-1.25-.65-2.58-.65-3.99s.22-2.71.65-3.96c.43-1.25,1.05-2.34,1.86-3.28.81-.94,1.79-1.68,2.96-2.23,1.17-.55,2.48-.83,3.95-.83,1.1,0,2.14.15,3.11.45.97.3,1.83.74,2.57,1.32.74.58,1.34,1.28,1.8,2.11.46.82.74,1.77.85,2.83h-3.44Z"/><path d="M400.23,86.18h14.15v2.97h-10.71v5.15h9.91v2.81h-9.91v5.75h10.9v2.97h-14.34v-19.65Z"/><path d="M416.88,86.18h3.63l8.97,14.48h.05v-14.48h3.28v19.65h-3.63l-8.94-14.45h-.08v14.45h-3.28v-19.65Z"/><path d="M434.46,86.18h15.91v2.97h-6.25v16.68h-3.44v-16.68h-6.22v-2.97Z"/><path d="M452.11,86.18h14.15v2.97h-10.71v5.15h9.91v2.81h-9.91v5.75h10.9v2.97h-14.34v-19.65Z"/><path d="M468.89,86.18h9.38c2.17,0,3.79.47,4.87,1.4,1.08.94,1.62,2.24,1.62,3.91,0,.94-.14,1.71-.41,2.33-.28.62-.6,1.11-.96,1.49s-.73.65-1.09.81c-.36.16-.62.28-.78.33v.06c.29.04.61.13.95.28.34.15.66.38.95.7.29.32.54.74.73,1.25.19.51.29,1.16.29,1.93,0,1.16.09,2.21.26,3.15.17.95.45,1.62.81,2.02h-3.69c-.26-.42-.41-.89-.45-1.4-.05-.51-.07-1.01-.07-1.49,0-.9-.05-1.67-.16-2.33-.11-.65-.31-1.19-.61-1.62-.29-.43-.69-.75-1.2-.95-.51-.2-1.15-.3-1.94-.3h-5.06v8.09h-3.44v-19.65ZM472.34,95.12h5.64c1.1,0,1.94-.26,2.51-.78.57-.52.85-1.31.85-2.35,0-.62-.09-1.13-.28-1.53-.18-.39-.44-.7-.76-.92-.32-.22-.69-.37-1.1-.44-.41-.07-.84-.11-1.28-.11h-5.59v6.14Z"/><path d="M494.82,86.18h13.57v2.97h-10.13v5.15h8.89v2.81h-8.89v8.72h-3.44v-19.65Z"/><path d="M518.96,85.71c1.47,0,2.78.27,3.95.83,1.16.55,2.15,1.29,2.96,2.23s1.43,2.03,1.86,3.28c.43,1.25.65,2.57.65,3.96s-.22,2.74-.65,3.99c-.43,1.25-1.05,2.34-1.86,3.28-.81.94-1.79,1.67-2.96,2.21-1.17.54-2.48.81-3.95.81s-2.78-.27-3.95-.81-2.15-1.28-2.96-2.21c-.81-.94-1.43-2.03-1.86-3.28-.43-1.25-.65-2.58-.65-3.99s.22-2.71.65-3.96c.43-1.25,1.05-2.34,1.86-3.28.81-.94,1.79-1.68,2.96-2.23,1.17-.55,2.48-.83,3.95-.83ZM518.96,88.52c-1.05,0-1.95.21-2.71.63-.76.42-1.38.99-1.86,1.69-.48.71-.83,1.51-1.06,2.41-.23.9-.34,1.82-.34,2.75s.11,1.85.34,2.75c.23.9.58,1.7,1.06,2.41.48.71,1.1,1.27,1.86,1.69.76.42,1.66.63,2.71.63s1.95-.21,2.71-.63c.76-.42,1.38-.99,1.86-1.69.48-.71.83-1.51,1.06-2.41.23-.9.34-1.82.34-2.75s-.11-1.85-.34-2.75c-.23-.9-.58-1.7-1.06-2.41-.48-.71-1.1-1.27-1.86-1.69-.76-.42-1.67-.63-2.71-.63Z"/><path d="M530.96,86.18h9.38c2.17,0,3.79.47,4.87,1.4,1.08.94,1.62,2.24,1.62,3.91,0,.94-.14,1.71-.41,2.33-.28.62-.6,1.11-.96,1.49s-.73.65-1.09.81c-.36.16-.62.28-.78.33v.06c.29.04.61.13.95.28s.66.38.95.7c.29.32.54.74.73,1.25.19.51.29,1.16.29,1.93,0,1.16.09,2.21.26,3.15.17.95.45,1.62.81,2.02h-3.69c-.26-.42-.41-.89-.45-1.4-.05-.51-.07-1.01-.07-1.49,0-.9-.05-1.67-.16-2.33-.11-.65-.31-1.19-.61-1.62-.29-.43-.69-.75-1.2-.95-.51-.2-1.15-.3-1.94-.3h-5.06v8.09h-3.44v-19.65ZM534.4,95.12h5.64c1.1,0,1.94-.26,2.51-.78.57-.52.85-1.31.85-2.35,0-.62-.09-1.13-.28-1.53-.18-.39-.44-.7-.76-.92-.32-.22-.69-.37-1.1-.44-.41-.07-.84-.11-1.28-.11h-5.59v6.14Z"/><path d="M559,141.07c-.84-1.25-1.92-2.25-3.26-2.99-1.34-.74-2.97-1.12-4.9-1.12s-3.56.37-4.9,1.12c-1.34.74-2.43,1.74-3.26,2.99-.84,1.25-1.44,2.68-1.82,4.27-.38,1.6-.57,3.25-.57,4.95s.19,3.22.57,4.76c.38,1.54.99,2.93,1.82,4.16.83,1.23,1.92,2.22,3.26,2.97,1.34.74,2.97,1.11,4.9,1.11s3.55-.37,4.9-1.11c1.34-.74,2.43-1.73,3.26-2.97.83-1.23,1.44-2.62,1.82-4.16.38-1.54.57-3.13.57-4.76s-.19-3.35-.57-4.95c-.38-1.59-.99-3.02-1.82-4.27Z"/><polygon points="714.16 193.4 709.1 207.66 719.16 207.66 714.27 193.4 714.16 193.4"/><path d="M597.15,194.19c-.84-1.25-1.92-2.25-3.27-2.99-1.34-.74-2.97-1.12-4.9-1.12s-3.56.37-4.9,1.12c-1.34.74-2.43,1.74-3.26,2.99-.84,1.25-1.44,2.68-1.82,4.27-.38,1.6-.57,3.25-.57,4.95s.19,3.22.57,4.76c.38,1.54.99,2.93,1.82,4.16.83,1.23,1.92,2.22,3.26,2.97,1.34.74,2.97,1.11,4.9,1.11s3.55-.37,4.9-1.11c1.34-.74,2.43-1.73,3.27-2.97.83-1.23,1.44-2.62,1.82-4.16.38-1.54.57-3.13.57-4.76s-.19-3.35-.57-4.95c-.38-1.59-.99-3.02-1.82-4.27Z"/><path d="M630.73,190.46h-9.36v10.94h9.36c1.96,0,3.43-.44,4.41-1.31.98-.87,1.47-2.29,1.47-4.24s-.49-3.26-1.47-4.11c-.98-.85-2.45-1.28-4.41-1.28Z"/><path d="M453.21,191.52c-.69-.42-1.49-.7-2.39-.84-.91-.14-1.85-.22-2.83-.22h-6.64v11.65h6.64c.98,0,1.92-.07,2.83-.22.91-.15,1.7-.43,2.39-.84.69-.42,1.24-1.01,1.66-1.77.42-.76.63-1.76.63-2.99s-.21-2.23-.63-2.99c-.42-.76-.97-1.35-1.66-1.77Z"/><path d="M520.09,190.46h-9.36v10.94h9.36c1.96,0,3.43-.44,4.41-1.31.98-.87,1.47-2.29,1.47-4.24s-.49-3.26-1.47-4.11c-.98-.85-2.45-1.28-4.41-1.28Z"/><path d="M698.43,159.22c.83,1.23,1.92,2.22,3.26,2.97,1.34.74,2.97,1.11,4.9,1.11s3.55-.37,4.9-1.11c1.34-.74,2.43-1.73,3.27-2.97.83-1.23,1.44-2.62,1.82-4.16.38-1.54.57-3.13.57-4.76s-.19-3.35-.57-4.95c-.38-1.59-.99-3.02-1.82-4.27-.84-1.25-1.92-2.25-3.27-2.99s-2.97-1.12-4.9-1.12-3.56.37-4.9,1.12c-1.34.74-2.43,1.74-3.26,2.99-.84,1.25-1.44,2.68-1.82,4.27-.38,1.6-.57,3.25-.57,4.95s.19,3.22.57,4.76c.38,1.54.99,2.93,1.82,4.16Z"/><path d="M391.33,206.57c-.65.4-1.23.87-1.74,1.42-.51.54-.92,1.14-1.22,1.8-.31.65-.46,1.38-.46,2.18,0,.69.15,1.35.46,1.99.31.64.72,1.18,1.22,1.63.51.46,1.1.82,1.77,1.09.67.27,1.37.41,2.1.41,1.38,0,2.58-.32,3.62-.95,1.03-.63,2-1.46,2.91-2.48l-6.64-8.11c-.69.29-1.36.63-2.01,1.03Z"/><path d="M517.53,146.97c.98-.87,1.47-2.29,1.47-4.25s-.49-3.26-1.47-4.11c-.98-.85-2.45-1.28-4.41-1.28h-9.36v10.94h9.36c1.96,0,3.43-.44,4.41-1.31Z"/><path d="M395.63,197.81c1.09-.69,2.02-1.43,2.8-2.23.78-.8,1.17-1.91,1.17-3.32,0-1.02-.35-1.89-1.06-2.61-.71-.73-1.53-1.09-2.48-1.09s-1.76.32-2.45.95c-.69.64-1.03,1.46-1.03,2.48,0,1.23.33,2.29.98,3.16s1.34,1.76,2.07,2.67Z"/><path d="M865.02,141.07c-.84-1.25-1.92-2.25-3.27-2.99-1.34-.74-2.97-1.12-4.9-1.12s-3.56.37-4.9,1.12c-1.34.74-2.43,1.74-3.26,2.99-.84,1.25-1.44,2.68-1.82,4.27-.38,1.6-.57,3.25-.57,4.95s.19,3.22.57,4.76c.38,1.54.99,2.93,1.82,4.16.83,1.23,1.92,2.22,3.26,2.97,1.34.74,2.97,1.11,4.9,1.11s3.55-.37,4.9-1.11c1.34-.74,2.43-1.73,3.27-2.97.83-1.23,1.44-2.62,1.82-4.16.38-1.54.57-3.13.57-4.76s-.19-3.35-.57-4.95c-.38-1.59-.99-3.02-1.82-4.27Z"/><path d="M375.42,122.03v108.76h476.09v-52.02h72.1v-56.75H375.42ZM824.47,130.7h8.54v38.86h-8.54v-38.86ZM735.06,130.7l8.65,27.32h.11l8.76-27.32h8.82l-12.9,38.86h-9.63l-12.57-38.86h8.76ZM688.8,142.21c.87-2.49,2.12-4.65,3.76-6.5,1.63-1.85,3.64-3.3,6.01-4.35,2.38-1.05,5.05-1.58,8.03-1.58s5.69.53,8.05,1.58c2.36,1.05,4.35,2.5,5.99,4.35,1.63,1.85,2.88,4.02,3.75,6.5.87,2.49,1.31,5.18,1.31,8.08s-.44,5.47-1.31,7.92c-.87,2.45-2.12,4.58-3.75,6.4-1.63,1.82-3.63,3.24-5.99,4.27-2.36,1.03-5.04,1.55-8.05,1.55s-5.65-.52-8.03-1.55c-2.38-1.03-4.38-2.46-6.01-4.27-1.63-1.81-2.88-3.95-3.76-6.4-.87-2.45-1.31-5.09-1.31-7.92s.44-5.6,1.31-8.08ZM595.74,130.7h8.54v38.86h-8.54v-38.86ZM573.81,151.38h16.38v6.64h-16.38v-6.64ZM495.22,130.7h20.95c1.74,0,3.31.28,4.71.84,1.4.56,2.59,1.33,3.59,2.31,1,.98,1.76,2.11,2.29,3.4.53,1.29.79,2.68.79,4.16,0,2.28-.48,4.26-1.44,5.93-.96,1.67-2.53,2.94-4.71,3.81v.11c1.05.29,1.92.73,2.61,1.33.69.6,1.25,1.31,1.69,2.12.44.82.75,1.71.95,2.69.2.98.34,1.96.41,2.94.03.62.07,1.34.11,2.18.04.83.1,1.69.19,2.56.09.87.24,1.7.44,2.48.2.78.5,1.44.9,1.99h-8.54c-.47-1.23-.76-2.7-.87-4.41-.11-1.71-.27-3.34-.49-4.9-.29-2.03-.91-3.52-1.85-4.46-.94-.94-2.49-1.42-4.63-1.42h-8.54v15.18h-8.54v-38.86ZM455.82,130.7h8.54v24.17c0,1.05.09,2.09.27,3.1.18,1.02.56,1.91,1.14,2.69.58.78,1.39,1.42,2.42,1.91,1.03.49,2.42.73,4.16.73,3.05,0,5.15-.68,6.31-2.04,1.16-1.36,1.74-3.49,1.74-6.39v-24.17h8.54v24.17c0,5.26-1.47,9.17-4.41,11.73-2.94,2.56-7,3.84-12.19,3.84s-9.33-1.27-12.22-3.81c-2.88-2.54-4.33-6.46-4.33-11.75v-24.17ZM382.57,130.7h8.49l16.22,26.07h.11v-26.07h8v38.86h-8.54l-16.16-26.01h-.11v26.01h-8v-38.86ZM407.22,222.68l-3.16-3.86c-1.56,1.52-3.22,2.67-4.98,3.43-1.76.76-3.75,1.14-5.96,1.14-1.74,0-3.38-.25-4.93-.76-1.54-.51-2.88-1.26-4-2.26-1.13-1-2.01-2.21-2.67-3.65-.65-1.43-.98-3.07-.98-4.92,0-1.38.24-2.64.71-3.78s1.12-2.18,1.93-3.1c.82-.93,1.75-1.75,2.8-2.48,1.05-.73,2.14-1.36,3.27-1.91-1.05-1.27-1.93-2.54-2.64-3.81-.71-1.27-1.06-2.76-1.06-4.46,0-1.34.28-2.56.84-3.65.56-1.09,1.31-2.02,2.26-2.8.94-.78,2.02-1.38,3.24-1.8,1.21-.42,2.48-.63,3.78-.63,1.49,0,2.88.2,4.16.6,1.29.4,2.41.99,3.37,1.77.96.78,1.72,1.75,2.29,2.91.56,1.16.84,2.5.84,4.03,0,2.29-.66,4.21-1.99,5.77-1.32,1.56-2.97,2.87-4.92,3.92l5.01,6.15c.4-.73.71-1.48.93-2.26.22-.78.38-1.57.49-2.37h6.69c-.18,1.74-.58,3.43-1.2,5.06-.62,1.63-1.47,3.14-2.56,4.52l7.89,9.2h-9.47ZM421.81,130.7h29.06v7.19h-20.52v8.32h18.83v6.64h-18.83v9.52h20.95v7.18h-29.5v-38.86ZM463.03,200.88c-.49,1.51-1.27,2.84-2.34,4-1.07,1.16-2.46,2.1-4.16,2.8-1.71.71-3.77,1.06-6.2,1.06h-8.98v13.93h-8.54v-38.86h17.52c2.43,0,4.5.35,6.2,1.06,1.7.71,3.09,1.64,4.16,2.8,1.07,1.16,1.85,2.49,2.34,3.97.49,1.49.73,3.03.73,4.63s-.25,3.09-.73,4.6ZM497.51,222.68h-29.5v-38.86h29.06v7.19h-20.52v8.32h18.83v6.64h-18.83v9.52h20.95v7.18ZM527.11,222.68c-.47-1.23-.76-2.7-.87-4.41-.11-1.71-.27-3.34-.49-4.9-.29-2.03-.91-3.52-1.85-4.46-.94-.94-2.49-1.42-4.63-1.42h-8.54v15.18h-8.54v-38.86h20.95c1.74,0,3.31.28,4.71.84,1.4.56,2.59,1.33,3.59,2.31,1,.98,1.76,2.11,2.29,3.4.53,1.29.79,2.68.79,4.16,0,2.28-.48,4.26-1.44,5.93-.96,1.67-2.53,2.94-4.71,3.81v.11c1.05.29,1.92.73,2.61,1.33.69.6,1.25,1.31,1.69,2.12.44.82.75,1.71.95,2.69.2.98.34,1.96.41,2.94.03.62.07,1.34.11,2.18.04.84.1,1.69.19,2.56.09.87.24,1.7.44,2.48.2.78.5,1.44.9,1.99h-8.54ZM567.71,191h-18.77v8.98h16.27v6.64h-16.27v16.05h-8.54v-38.86h27.32v7.19ZM564.88,164.6c-1.63,1.82-3.63,3.24-5.98,4.27-2.36,1.03-5.05,1.55-8.06,1.55s-5.65-.52-8.03-1.55c-2.38-1.03-4.38-2.46-6.01-4.27-1.63-1.81-2.88-3.95-3.75-6.4-.87-2.45-1.31-5.09-1.31-7.92s.44-5.6,1.31-8.08c.87-2.49,2.12-4.65,3.75-6.5,1.63-1.85,3.64-3.3,6.01-4.35,2.38-1.05,5.05-1.58,8.03-1.58s5.69.53,8.06,1.58c2.36,1.05,4.35,2.5,5.98,4.35,1.63,1.85,2.88,4.02,3.76,6.5.87,2.49,1.3,5.18,1.3,8.08s-.43,5.47-1.3,7.92c-.87,2.45-2.12,4.58-3.76,6.4ZM606.79,211.33c-.87,2.45-2.12,4.58-3.75,6.4-1.63,1.82-3.63,3.24-5.99,4.27-2.36,1.03-5.04,1.55-8.05,1.55s-5.65-.52-8.03-1.55c-2.38-1.03-4.38-2.46-6.01-4.27-1.63-1.81-2.88-3.95-3.76-6.4-.87-2.45-1.31-5.09-1.31-7.92s.44-5.6,1.31-8.08c.87-2.49,2.12-4.65,3.76-6.5,1.63-1.85,3.64-3.3,6.01-4.35,2.38-1.05,5.05-1.58,8.03-1.58s5.69.53,8.05,1.58c2.36,1.05,4.35,2.5,5.99,4.35,1.63,1.85,2.88,4.02,3.75,6.5.87,2.49,1.31,5.18,1.31,8.08s-.44,5.47-1.31,7.92ZM610.7,130.7h8.49l16.22,26.07h.11v-26.07h8v38.86h-8.54l-16.16-26.01h-.11v26.01h-8v-38.86ZM637.75,222.68c-.47-1.23-.76-2.7-.87-4.41-.11-1.71-.27-3.34-.49-4.9-.29-2.03-.91-3.52-1.85-4.46-.94-.94-2.49-1.42-4.63-1.42h-8.54v15.18h-8.54v-38.86h20.95c1.74,0,3.31.28,4.71.84,1.4.56,2.59,1.33,3.59,2.31,1,.98,1.76,2.11,2.28,3.4.53,1.29.79,2.68.79,4.16,0,2.28-.48,4.26-1.44,5.93-.96,1.67-2.53,2.94-4.71,3.81v.11c1.05.29,1.92.73,2.61,1.33.69.6,1.25,1.31,1.69,2.12.44.82.75,1.71.95,2.69.2.98.34,1.96.41,2.94.04.62.07,1.34.11,2.18.04.84.1,1.69.19,2.56.09.87.24,1.7.44,2.48.2.78.5,1.44.9,1.99h-8.54ZM649.94,130.7h8.49l16.22,26.07h.11v-26.07h8v38.86h-8.54l-16.16-26.01h-.11v26.01h-8v-38.86ZM692.88,222.68h-8v-27.54h-.11l-9.52,27.54h-6.59l-9.52-27.26h-.11v27.26h-8v-38.86h12.03l9.09,26.72h.11l8.6-26.72h12.03v38.86ZM724.34,222.68l-2.94-8.65h-14.53l-3.05,8.65h-8.6l14.69-38.86h8.76l14.53,38.86h-8.87ZM768.31,222.68h-8.54l-16.16-26.01h-.11v26.01h-8v-38.86h8.49l16.22,26.07h.11v-26.07h8v38.86ZM765.64,169.56h-8.6l14.69-38.86h8.76l14.53,38.86h-8.87l-2.94-8.65h-14.53l-3.05,8.65ZM807.55,214.3c-.91,1.96-2.11,3.63-3.59,5.01-1.49,1.38-3.23,2.43-5.22,3.16-2,.72-4.19,1.09-6.59,1.09-2.98,0-5.65-.52-8.03-1.55-2.38-1.03-4.38-2.46-6.01-4.27-1.63-1.81-2.88-3.95-3.76-6.4-.87-2.45-1.31-5.09-1.31-7.92s.44-5.6,1.31-8.08c.87-2.49,2.12-4.65,3.76-6.5,1.63-1.85,3.64-3.3,6.01-4.35,2.38-1.05,5.05-1.58,8.03-1.58,2.14,0,4.16.31,6.07.92,1.9.62,3.61,1.52,5.12,2.69,1.51,1.18,2.75,2.64,3.73,4.38.98,1.74,1.59,3.74,1.85,5.99h-8.27c-.15-.98-.47-1.88-.98-2.7-.51-.82-1.14-1.53-1.9-2.15-.76-.62-1.62-1.1-2.59-1.44-.96-.34-1.97-.52-3.02-.52-1.92,0-3.56.37-4.9,1.12-1.34.74-2.43,1.74-3.26,2.99-.84,1.25-1.44,2.68-1.82,4.27-.38,1.6-.57,3.25-.57,4.95s.19,3.22.57,4.76c.38,1.54.99,2.93,1.82,4.16.83,1.23,1.92,2.22,3.26,2.97,1.34.74,2.97,1.11,4.9,1.11,2.61,0,4.65-.8,6.12-2.39,1.47-1.6,2.37-3.7,2.69-6.31h8.27c-.22,2.43-.78,4.62-1.69,6.59ZM809.45,169.56h-8.55v-31.67h-11.65v-7.19h31.84v7.19h-11.65v31.67ZM843.47,222.68h-29.5v-38.86h29.06v7.19h-20.52v8.32h18.83v6.64h-18.83v9.52h20.95v7.18ZM874.65,158.21c-.87,2.45-2.12,4.58-3.75,6.4-1.63,1.82-3.63,3.24-5.99,4.27-2.36,1.03-5.04,1.55-8.05,1.55s-5.65-.52-8.03-1.55c-2.38-1.03-4.38-2.46-6.01-4.27-1.63-1.81-2.89-3.95-3.76-6.4-.87-2.45-1.31-5.09-1.31-7.92s.44-5.6,1.31-8.08c.87-2.49,2.12-4.65,3.76-6.5,1.63-1.85,3.64-3.3,6.01-4.35,2.38-1.05,5.05-1.58,8.03-1.58s5.69.53,8.05,1.58c2.36,1.05,4.35,2.5,5.99,4.35,1.63,1.85,2.88,4.02,3.75,6.5.87,2.49,1.31,5.18,1.31,8.08s-.44,5.47-1.31,7.92ZM913.51,169.56h-8.54l-16.16-26.01h-.11v26.01h-8v-38.86h8.49l16.22,26.07h.11v-26.07h8v38.86Z"/><polygon points="775.98 140.28 770.92 154.54 780.99 154.54 776.09 140.28 775.98 140.28"/></g></svg>